<svg width="755" height="53" viewBox="0 0 755 53" fill="none" xmlns="http://www.w3.org/2000/svg">
<circle cx="265" cy="38" r="15" fill="#DBE8FC"/>
<circle cx="492" cy="38" r="15" fill="#4D8AF0" fill-opacity="0.2"/>
<circle cx="719" cy="38" r="15" fill="#4D8AF0" fill-opacity="0.2"/>
<line x1="53" y1="37.5" x2="250" y2="37.5" stroke="black"/>
<line x1="280" y1="37.5" x2="477" y2="37.5" stroke="black"/>
<line x1="507" y1="37.5" x2="704" y2="37.5" stroke="black"/>
<path d="M3.52735 5.967C3.87269 5.967 4.17369 5.925 4.43035 5.841C4.68702 5.75233 4.89935 5.62867 5.06735 5.47C5.24002 5.30667 5.36835 5.11067 5.45235 4.882C5.53635 4.64867 5.57835 4.38967 5.57835 4.105C5.57835 3.83433 5.53635 3.58933 5.45235 3.37C5.36835 3.15067 5.24235 2.964 5.07435 2.81C4.90635 2.656 4.69402 2.53933 4.43735 2.46C4.18069 2.376 3.87735 2.334 3.52735 2.334H2.12035V5.967H3.52735ZM3.52735 0.877999C4.20402 0.877999 4.78969 0.957333 5.28435 1.116C5.77902 1.27467 6.18735 1.49633 6.50935 1.781C6.83135 2.06567 7.06935 2.40633 7.22335 2.803C7.38202 3.19967 7.46135 3.63367 7.46135 4.105C7.46135 4.595 7.37969 5.04533 7.21635 5.456C7.05302 5.862 6.80802 6.212 6.48135 6.506C6.15469 6.8 5.74402 7.02867 5.24935 7.192C4.75935 7.35533 4.18535 7.437 3.52735 7.437H2.12035V11H0.237352V0.877999H3.52735ZM12.9312 6.583C12.9312 6.359 12.8985 6.149 12.8332 5.953C12.7725 5.75233 12.6792 5.57733 12.5532 5.428C12.4272 5.27867 12.2662 5.162 12.0702 5.078C11.8789 4.98933 11.6549 4.945 11.3982 4.945C10.8989 4.945 10.5045 5.08733 10.2152 5.372C9.93053 5.65667 9.74853 6.06033 9.6692 6.583H12.9312ZM9.6342 7.626C9.6622 7.99467 9.72753 8.31433 9.8302 8.585C9.93286 8.851 10.0682 9.07267 10.2362 9.25C10.4042 9.42267 10.6025 9.55333 10.8312 9.642C11.0645 9.726 11.3212 9.768 11.6012 9.768C11.8812 9.768 12.1215 9.73533 12.3222 9.67C12.5275 9.60467 12.7049 9.53233 12.8542 9.453C13.0082 9.37367 13.1412 9.30133 13.2532 9.236C13.3699 9.17067 13.4819 9.138 13.5892 9.138C13.7339 9.138 13.8412 9.19167 13.9112 9.299L14.4082 9.929C14.2169 10.153 14.0022 10.342 13.7642 10.496C13.5262 10.6453 13.2765 10.7667 13.0152 10.86C12.7585 10.9487 12.4949 11.0117 12.2242 11.049C11.9582 11.0863 11.6992 11.105 11.4472 11.105C10.9479 11.105 10.4835 11.0233 10.0542 10.86C9.62486 10.692 9.25153 10.447 8.9342 10.125C8.61686 9.79833 8.3672 9.397 8.1852 8.921C8.0032 8.44033 7.9122 7.885 7.9122 7.255C7.9122 6.765 7.99153 6.30533 8.1502 5.876C8.30886 5.442 8.5352 5.06633 8.8292 4.749C9.12786 4.427 9.48953 4.17267 9.9142 3.986C10.3435 3.79933 10.8265 3.706 11.3632 3.706C11.8159 3.706 12.2335 3.77833 12.6162 3.923C12.9989 4.06767 13.3279 4.28 13.6032 4.56C13.8785 4.83533 14.0932 5.176 14.2472 5.582C14.4059 5.98333 14.4852 6.443 14.4852 6.961C14.4852 7.22233 14.4572 7.39967 14.4012 7.493C14.3452 7.58167 14.2379 7.626 14.0792 7.626H9.6342ZM17.4137 5.064C17.6377 4.63467 17.9037 4.29867 18.2117 4.056C18.5197 3.80867 18.8837 3.685 19.3037 3.685C19.635 3.685 19.901 3.75733 20.1017 3.902L19.9897 5.197C19.9664 5.281 19.9314 5.34167 19.8847 5.379C19.8427 5.41167 19.7844 5.428 19.7097 5.428C19.6397 5.428 19.5347 5.41633 19.3947 5.393C19.2594 5.36967 19.1264 5.358 18.9957 5.358C18.8044 5.358 18.634 5.386 18.4847 5.442C18.3354 5.498 18.2 5.57967 18.0787 5.687C17.962 5.78967 17.857 5.91567 17.7637 6.065C17.675 6.21433 17.591 6.38467 17.5117 6.576V11H15.7827V3.818H16.7977C16.975 3.818 17.0987 3.85067 17.1687 3.916C17.2387 3.97667 17.2854 4.08867 17.3087 4.252L17.4137 5.064ZM25.36 5.218C25.3134 5.29267 25.2644 5.34633 25.213 5.379C25.1617 5.407 25.0964 5.421 25.017 5.421C24.933 5.421 24.842 5.39767 24.744 5.351C24.6507 5.30433 24.541 5.253 24.415 5.197C24.289 5.13633 24.1444 5.08267 23.981 5.036C23.8224 4.98933 23.6334 4.966 23.414 4.966C23.0734 4.966 22.805 5.03833 22.609 5.183C22.4177 5.32767 22.322 5.51667 22.322 5.75C22.322 5.904 22.371 6.03467 22.469 6.142C22.5717 6.24467 22.7047 6.33567 22.868 6.415C23.036 6.49433 23.225 6.56667 23.435 6.632C23.645 6.69267 23.8574 6.76033 24.072 6.835C24.2914 6.90967 24.506 6.996 24.716 7.094C24.926 7.18733 25.1127 7.30867 25.276 7.458C25.444 7.60267 25.577 7.77767 25.675 7.983C25.7777 8.18833 25.829 8.43567 25.829 8.725C25.829 9.07033 25.766 9.39 25.64 9.684C25.5187 9.97333 25.3367 10.2253 25.094 10.44C24.8514 10.65 24.5504 10.8157 24.191 10.937C23.8364 11.0537 23.4257 11.112 22.959 11.112C22.7117 11.112 22.469 11.0887 22.231 11.042C21.9977 11 21.7714 10.9393 21.552 10.86C21.3374 10.7807 21.1367 10.6873 20.95 10.58C20.768 10.4727 20.607 10.356 20.467 10.23L20.866 9.572C20.9174 9.49267 20.978 9.432 21.048 9.39C21.118 9.348 21.2067 9.327 21.314 9.327C21.4214 9.327 21.5217 9.35733 21.615 9.418C21.713 9.47867 21.825 9.544 21.951 9.614C22.077 9.684 22.224 9.74933 22.392 9.81C22.5647 9.87067 22.7817 9.901 23.043 9.901C23.2484 9.901 23.4234 9.87767 23.568 9.831C23.7174 9.77967 23.8387 9.71433 23.932 9.635C24.03 9.55567 24.1 9.46467 24.142 9.362C24.1887 9.25467 24.212 9.145 24.212 9.033C24.212 8.865 24.1607 8.72733 24.058 8.62C23.96 8.51267 23.827 8.41933 23.659 8.34C23.4957 8.26067 23.3067 8.19067 23.092 8.13C22.882 8.06467 22.665 7.99467 22.441 7.92C22.2217 7.84533 22.0047 7.759 21.79 7.661C21.58 7.55833 21.391 7.43 21.223 7.276C21.0597 7.122 20.9267 6.933 20.824 6.709C20.726 6.485 20.677 6.21433 20.677 5.897C20.677 5.603 20.7354 5.323 20.852 5.057C20.9687 4.791 21.139 4.56 21.363 4.364C21.5917 4.16333 21.874 4.00467 22.21 3.888C22.5507 3.76667 22.9427 3.706 23.386 3.706C23.8807 3.706 24.331 3.78767 24.737 3.951C25.143 4.11433 25.4814 4.329 25.752 4.595L25.36 5.218ZM30.3084 3.706C30.8404 3.706 31.3234 3.79233 31.7574 3.965C32.196 4.13767 32.5694 4.38267 32.8774 4.7C33.19 5.01733 33.4304 5.40467 33.5984 5.862C33.7664 6.31933 33.8504 6.83033 33.8504 7.395C33.8504 7.96433 33.7664 8.47767 33.5984 8.935C33.4304 9.39233 33.19 9.782 32.8774 10.104C32.5694 10.426 32.196 10.6733 31.7574 10.846C31.3234 11.0187 30.8404 11.105 30.3084 11.105C29.7717 11.105 29.284 11.0187 28.8454 10.846C28.4067 10.6733 28.031 10.426 27.7184 10.104C27.4104 9.782 27.17 9.39233 26.9974 8.935C26.8294 8.47767 26.7454 7.96433 26.7454 7.395C26.7454 6.83033 26.8294 6.31933 26.9974 5.862C27.17 5.40467 27.4104 5.01733 27.7184 4.7C28.031 4.38267 28.4067 4.13767 28.8454 3.965C29.284 3.79233 29.7717 3.706 30.3084 3.706ZM30.3084 9.775C30.9057 9.775 31.3467 9.57433 31.6314 9.173C31.9207 8.77167 32.0654 8.18367 32.0654 7.409C32.0654 6.63433 31.9207 6.044 31.6314 5.638C31.3467 5.232 30.9057 5.029 30.3084 5.029C29.7017 5.029 29.2514 5.23433 28.9574 5.645C28.668 6.051 28.5234 6.639 28.5234 7.409C28.5234 8.179 28.668 8.767 28.9574 9.173C29.2514 9.57433 29.7017 9.775 30.3084 9.775ZM36.7864 4.7C36.9311 4.55533 37.0828 4.42233 37.2414 4.301C37.4048 4.175 37.5751 4.07 37.7524 3.986C37.9344 3.89733 38.1281 3.82967 38.3334 3.783C38.5388 3.73167 38.7628 3.706 39.0054 3.706C39.3974 3.706 39.7451 3.77367 40.0484 3.909C40.3518 4.03967 40.6038 4.22633 40.8044 4.469C41.0098 4.707 41.1638 4.994 41.2664 5.33C41.3738 5.66133 41.4274 6.02767 41.4274 6.429V11H39.6984V6.429C39.6984 5.99033 39.5981 5.652 39.3974 5.414C39.1968 5.17133 38.8911 5.05 38.4804 5.05C38.1818 5.05 37.9018 5.11767 37.6404 5.253C37.3791 5.38833 37.1318 5.57267 36.8984 5.806V11H35.1694V3.818H36.2264C36.4504 3.818 36.5974 3.923 36.6674 4.133L36.7864 4.7ZM46.8658 7.934C46.3664 7.95733 45.9464 8.00167 45.6058 8.067C45.2651 8.12767 44.9921 8.207 44.7868 8.305C44.5814 8.403 44.4344 8.51733 44.3458 8.648C44.2571 8.77867 44.2128 8.921 44.2128 9.075C44.2128 9.37833 44.3014 9.59533 44.4788 9.726C44.6608 9.85667 44.8964 9.922 45.1858 9.922C45.5404 9.922 45.8461 9.859 46.1028 9.733C46.3641 9.60233 46.6184 9.40633 46.8658 9.145V7.934ZM42.9038 4.819C43.7298 4.063 44.7238 3.685 45.8858 3.685C46.3058 3.685 46.6814 3.755 47.0128 3.895C47.3441 4.03033 47.6241 4.22167 47.8528 4.469C48.0814 4.71167 48.2541 5.00333 48.3708 5.344C48.4921 5.68467 48.5528 6.058 48.5528 6.464V11H47.7688C47.6054 11 47.4794 10.9767 47.3908 10.93C47.3021 10.8787 47.2321 10.7783 47.1808 10.629L47.0268 10.111C46.8448 10.2743 46.6674 10.419 46.4948 10.545C46.3221 10.6663 46.1424 10.769 45.9558 10.853C45.7691 10.937 45.5684 11 45.3538 11.042C45.1438 11.0887 44.9104 11.112 44.6538 11.112C44.3504 11.112 44.0704 11.0723 43.8138 10.993C43.5571 10.909 43.3354 10.7853 43.1488 10.622C42.9621 10.4587 42.8174 10.2557 42.7148 10.013C42.6121 9.77033 42.5608 9.488 42.5608 9.166C42.5608 8.984 42.5911 8.80433 42.6518 8.627C42.7124 8.445 42.8104 8.27233 42.9458 8.109C43.0858 7.94567 43.2654 7.79167 43.4848 7.647C43.7041 7.50233 43.9724 7.37633 44.2898 7.269C44.6118 7.16167 44.9851 7.07533 45.4098 7.01C45.8344 6.94 46.3198 6.898 46.8658 6.884V6.464C46.8658 5.98333 46.7631 5.62867 46.5578 5.4C46.3524 5.16667 46.0561 5.05 45.6688 5.05C45.3888 5.05 45.1554 5.08267 44.9688 5.148C44.7868 5.21333 44.6258 5.288 44.4858 5.372C44.3458 5.45133 44.2174 5.52367 44.1008 5.589C43.9888 5.65433 43.8628 5.687 43.7228 5.687C43.6014 5.687 43.4988 5.65667 43.4148 5.596C43.3308 5.53067 43.2631 5.456 43.2118 5.372L42.9038 4.819ZM51.9311 0.598V11H50.2021V0.598H51.9311ZM61.1181 9.53C61.4681 9.53 61.7621 9.488 62.0001 9.404C62.2381 9.32 62.4271 9.208 62.5671 9.068C62.7118 8.928 62.8144 8.76467 62.8751 8.578C62.9404 8.39133 62.9731 8.193 62.9731 7.983C62.9731 7.76367 62.9381 7.56767 62.8681 7.395C62.7981 7.21767 62.6884 7.06833 62.5391 6.947C62.3898 6.821 62.1961 6.72533 61.9581 6.66C61.7248 6.59467 61.4424 6.562 61.1111 6.562H59.2141V9.53H61.1181ZM59.2141 2.334V5.26H60.7121C61.3561 5.26 61.8414 5.14333 62.1681 4.91C62.4994 4.67667 62.6651 4.30567 62.6651 3.797C62.6651 3.26967 62.5158 2.894 62.2171 2.67C61.9184 2.446 61.4518 2.334 60.8171 2.334H59.2141ZM60.8171 0.877999C61.4798 0.877999 62.0468 0.940999 62.5181 1.067C62.9894 1.193 63.3744 1.37267 63.6731 1.606C63.9764 1.83933 64.1981 2.12167 64.3381 2.453C64.4781 2.78433 64.5481 3.15767 64.5481 3.573C64.5481 3.811 64.5131 4.03967 64.4431 4.259C64.3731 4.47367 64.2634 4.67667 64.1141 4.868C63.9694 5.05467 63.7828 5.225 63.5541 5.379C63.3301 5.533 63.0618 5.66367 62.7491 5.771C64.1398 6.08367 64.8351 6.835 64.8351 8.025C64.8351 8.45433 64.7534 8.851 64.5901 9.215C64.4268 9.579 64.1888 9.894 63.8761 10.16C63.5634 10.4213 63.1784 10.6267 62.7211 10.776C62.2638 10.9253 61.7411 11 61.1531 11H57.3311V0.877999H60.8171ZM67.9419 3.818V11H66.2059V3.818H67.9419ZM68.1799 1.725C68.1799 1.87433 68.1496 2.01433 68.0889 2.145C68.0282 2.27567 67.9466 2.39 67.8439 2.488C67.7459 2.586 67.6292 2.66533 67.4939 2.726C67.3586 2.782 67.2139 2.81 67.0599 2.81C66.9106 2.81 66.7682 2.782 66.6329 2.726C66.5022 2.66533 66.3879 2.586 66.2899 2.488C66.1919 2.39 66.1126 2.27567 66.0519 2.145C65.9959 2.01433 65.9679 1.87433 65.9679 1.725C65.9679 1.571 65.9959 1.42633 66.0519 1.291C66.1126 1.15567 66.1919 1.039 66.2899 0.941C66.3879 0.843 66.5022 0.766 66.6329 0.71C66.7682 0.649333 66.9106 0.619 67.0599 0.619C67.2139 0.619 67.3586 0.649333 67.4939 0.71C67.6292 0.766 67.7459 0.843 67.8439 0.941C67.9466 1.039 68.0282 1.15567 68.0889 1.291C68.1496 1.42633 68.1799 1.571 68.1799 1.725ZM72.8826 3.706C73.4146 3.706 73.8976 3.79233 74.3316 3.965C74.7703 4.13767 75.1436 4.38267 75.4516 4.7C75.7643 5.01733 76.0046 5.40467 76.1726 5.862C76.3406 6.31933 76.4246 6.83033 76.4246 7.395C76.4246 7.96433 76.3406 8.47767 76.1726 8.935C76.0046 9.39233 75.7643 9.782 75.4516 10.104C75.1436 10.426 74.7703 10.6733 74.3316 10.846C73.8976 11.0187 73.4146 11.105 72.8826 11.105C72.3459 11.105 71.8583 11.0187 71.4196 10.846C70.9809 10.6733 70.6053 10.426 70.2926 10.104C69.9846 9.782 69.7443 9.39233 69.5716 8.935C69.4036 8.47767 69.3196 7.96433 69.3196 7.395C69.3196 6.83033 69.4036 6.31933 69.5716 5.862C69.7443 5.40467 69.9846 5.01733 70.2926 4.7C70.6053 4.38267 70.9809 4.13767 71.4196 3.965C71.8583 3.79233 72.3459 3.706 72.8826 3.706ZM72.8826 9.775C73.4799 9.775 73.9209 9.57433 74.2056 9.173C74.4949 8.77167 74.6396 8.18367 74.6396 7.409C74.6396 6.63433 74.4949 6.044 74.2056 5.638C73.9209 5.232 73.4799 5.029 72.8826 5.029C72.2759 5.029 71.8256 5.23433 71.5316 5.645C71.2423 6.051 71.0976 6.639 71.0976 7.409C71.0976 8.179 71.2423 8.767 71.5316 9.173C71.8256 9.57433 72.2759 9.775 72.8826 9.775Z" fill="black"/>
<path d="M244.469 6.17C244.856 6.17 245.197 6.11867 245.491 6.016C245.789 5.91333 246.039 5.771 246.24 5.589C246.445 5.40233 246.599 5.18067 246.702 4.924C246.804 4.66733 246.856 4.385 246.856 4.077C246.856 3.43767 246.657 2.93833 246.261 2.579C245.869 2.21967 245.271 2.04 244.469 2.04H242.859V6.17H244.469ZM244.469 0.968999C245.103 0.968999 245.654 1.04367 246.121 1.193C246.592 1.33767 246.982 1.54533 247.29 1.816C247.598 2.08667 247.826 2.41333 247.976 2.796C248.13 3.17867 248.207 3.60567 248.207 4.077C248.207 4.54367 248.125 4.97067 247.962 5.358C247.798 5.74533 247.558 6.079 247.241 6.359C246.928 6.639 246.538 6.85833 246.072 7.017C245.61 7.171 245.075 7.248 244.469 7.248H242.859V11H241.508V0.968999H244.469ZM250.668 5.33C250.892 4.84467 251.167 4.46667 251.494 4.196C251.821 3.92067 252.22 3.783 252.691 3.783C252.84 3.783 252.983 3.79933 253.118 3.832C253.258 3.86467 253.382 3.916 253.489 3.986L253.398 4.917C253.37 5.03367 253.3 5.092 253.188 5.092C253.123 5.092 253.027 5.078 252.901 5.05C252.775 5.022 252.633 5.008 252.474 5.008C252.25 5.008 252.049 5.04067 251.872 5.106C251.699 5.17133 251.543 5.26933 251.403 5.4C251.268 5.526 251.144 5.68467 251.032 5.876C250.925 6.06267 250.827 6.27733 250.738 6.52V11H249.485V3.909H250.199C250.334 3.909 250.428 3.93467 250.479 3.986C250.53 4.03733 250.565 4.126 250.584 4.252L250.668 5.33ZM257.287 3.797C257.805 3.797 258.271 3.88333 258.687 4.056C259.102 4.22867 259.457 4.47367 259.751 4.791C260.045 5.10833 260.269 5.49333 260.423 5.946C260.581 6.394 260.661 6.89567 260.661 7.451C260.661 8.011 260.581 8.515 260.423 8.963C260.269 9.411 260.045 9.79367 259.751 10.111C259.457 10.4283 259.102 10.6733 258.687 10.846C258.271 11.014 257.805 11.098 257.287 11.098C256.764 11.098 256.293 11.014 255.873 10.846C255.457 10.6733 255.103 10.4283 254.809 10.111C254.515 9.79367 254.288 9.411 254.13 8.963C253.976 8.515 253.899 8.011 253.899 7.451C253.899 6.89567 253.976 6.394 254.13 5.946C254.288 5.49333 254.515 5.10833 254.809 4.791C255.103 4.47367 255.457 4.22867 255.873 4.056C256.293 3.88333 256.764 3.797 257.287 3.797ZM257.287 10.125C257.987 10.125 258.509 9.89167 258.855 9.425C259.2 8.95367 259.373 8.298 259.373 7.458C259.373 6.61333 259.2 5.95533 258.855 5.484C258.509 5.01267 257.987 4.777 257.287 4.777C256.932 4.777 256.622 4.83767 256.356 4.959C256.094 5.08033 255.875 5.25533 255.698 5.484C255.525 5.71267 255.394 5.995 255.306 6.331C255.222 6.66233 255.18 7.038 255.18 7.458C255.18 8.298 255.352 8.95367 255.698 9.425C256.048 9.89167 256.577 10.125 257.287 10.125ZM263.557 3.909V11.525C263.557 11.8097 263.52 12.0733 263.445 12.316C263.37 12.5633 263.251 12.778 263.088 12.96C262.925 13.142 262.715 13.2843 262.458 13.387C262.206 13.4943 261.903 13.548 261.548 13.548C261.399 13.548 261.261 13.5363 261.135 13.513C261.009 13.4897 260.883 13.4547 260.757 13.408L260.806 12.736C260.815 12.694 260.832 12.6613 260.855 12.638C260.874 12.6193 260.902 12.6077 260.939 12.603C260.976 12.5983 261.025 12.596 261.086 12.596C261.142 12.6007 261.214 12.603 261.303 12.603C261.667 12.603 261.926 12.5167 262.08 12.344C262.234 12.176 262.311 11.903 262.311 11.525V3.909H263.557ZM263.816 1.683C263.816 1.80433 263.79 1.91867 263.739 2.026C263.692 2.12867 263.627 2.222 263.543 2.306C263.464 2.38533 263.37 2.44833 263.263 2.495C263.156 2.54167 263.041 2.565 262.92 2.565C262.799 2.565 262.684 2.54167 262.577 2.495C262.474 2.44833 262.383 2.38533 262.304 2.306C262.225 2.222 262.162 2.12867 262.115 2.026C262.068 1.91867 262.045 1.80433 262.045 1.683C262.045 1.56167 262.068 1.44733 262.115 1.34C262.162 1.228 262.225 1.13233 262.304 1.053C262.383 0.969 262.474 0.903666 262.577 0.856999C262.684 0.810333 262.799 0.786999 262.92 0.786999C263.041 0.786999 263.156 0.810333 263.263 0.856999C263.37 0.903666 263.464 0.969 263.543 1.053C263.627 1.13233 263.692 1.228 263.739 1.34C263.79 1.44733 263.816 1.56167 263.816 1.683ZM270.35 6.681C270.35 6.39167 270.308 6.128 270.224 5.89C270.145 5.64733 270.026 5.43967 269.867 5.267C269.713 5.08967 269.524 4.95433 269.3 4.861C269.076 4.763 268.822 4.714 268.537 4.714C267.94 4.714 267.466 4.889 267.116 5.239C266.771 5.58433 266.556 6.065 266.472 6.681H270.35ZM271.358 10.006C271.204 10.1927 271.02 10.356 270.805 10.496C270.591 10.6313 270.36 10.7433 270.112 10.832C269.87 10.9207 269.618 10.986 269.356 11.028C269.095 11.0747 268.836 11.098 268.579 11.098C268.089 11.098 267.637 11.0163 267.221 10.853C266.811 10.685 266.454 10.4423 266.15 10.125C265.852 9.803 265.618 9.40633 265.45 8.935C265.282 8.46367 265.198 7.92233 265.198 7.311C265.198 6.81633 265.273 6.35433 265.422 5.925C265.576 5.49567 265.796 5.12467 266.08 4.812C266.365 4.49467 266.713 4.24733 267.123 4.07C267.534 3.888 267.996 3.797 268.509 3.797C268.934 3.797 269.326 3.86933 269.685 4.014C270.049 4.154 270.362 4.35933 270.623 4.63C270.889 4.896 271.097 5.22733 271.246 5.624C271.396 6.016 271.47 6.464 271.47 6.968C271.47 7.164 271.449 7.29467 271.407 7.36C271.365 7.42533 271.286 7.458 271.169 7.458H266.43C266.444 7.906 266.505 8.29567 266.612 8.627C266.724 8.95833 266.878 9.236 267.074 9.46C267.27 9.67933 267.504 9.845 267.774 9.957C268.045 10.0643 268.348 10.118 268.684 10.118C268.997 10.118 269.265 10.083 269.489 10.013C269.718 9.93833 269.914 9.859 270.077 9.775C270.241 9.691 270.376 9.614 270.483 9.544C270.595 9.46933 270.691 9.432 270.77 9.432C270.873 9.432 270.952 9.47167 271.008 9.551L271.358 10.006ZM277.936 5.169C277.898 5.22033 277.861 5.26 277.824 5.288C277.786 5.316 277.735 5.33 277.67 5.33C277.6 5.33 277.523 5.302 277.439 5.246C277.355 5.18533 277.25 5.12 277.124 5.05C277.002 4.98 276.851 4.917 276.669 4.861C276.491 4.80033 276.272 4.77 276.011 4.77C275.661 4.77 275.353 4.833 275.087 4.959C274.821 5.08033 274.597 5.25767 274.415 5.491C274.237 5.72433 274.102 6.00667 274.009 6.338C273.92 6.66933 273.876 7.04033 273.876 7.451C273.876 7.88033 273.925 8.263 274.023 8.599C274.121 8.93033 274.258 9.21033 274.436 9.439C274.618 9.663 274.835 9.83567 275.087 9.957C275.343 10.0737 275.63 10.132 275.948 10.132C276.251 10.132 276.501 10.097 276.697 10.027C276.893 9.95233 277.054 9.87067 277.18 9.782C277.31 9.69333 277.418 9.614 277.502 9.544C277.59 9.46933 277.677 9.432 277.761 9.432C277.863 9.432 277.943 9.47167 277.999 9.551L278.349 10.006C278.195 10.1973 278.02 10.3607 277.824 10.496C277.628 10.6313 277.415 10.7457 277.187 10.839C276.963 10.9277 276.727 10.993 276.48 11.035C276.232 11.077 275.98 11.098 275.724 11.098C275.28 11.098 274.867 11.0163 274.485 10.853C274.107 10.6897 273.778 10.454 273.498 10.146C273.218 9.83333 272.998 9.45067 272.84 8.998C272.681 8.54533 272.602 8.02967 272.602 7.451C272.602 6.92367 272.674 6.436 272.819 5.988C272.968 5.54 273.183 5.155 273.463 4.833C273.747 4.50633 274.095 4.252 274.506 4.07C274.921 3.888 275.397 3.797 275.934 3.797C276.433 3.797 276.872 3.87867 277.25 4.042C277.632 4.20067 277.971 4.427 278.265 4.721L277.936 5.169ZM281.863 11.112C281.303 11.112 280.872 10.9557 280.568 10.643C280.27 10.3303 280.12 9.88 280.12 9.292V4.952H279.266C279.192 4.952 279.129 4.931 279.077 4.889C279.026 4.84233 279 4.77233 279 4.679V4.182L280.162 4.035L280.449 1.844C280.463 1.774 280.494 1.718 280.54 1.676C280.592 1.62933 280.657 1.606 280.736 1.606H281.366V4.049H283.417V4.952H281.366V9.208C281.366 9.50667 281.439 9.72833 281.583 9.873C281.728 10.0177 281.915 10.09 282.143 10.09C282.274 10.09 282.386 10.0737 282.479 10.041C282.577 10.0037 282.661 9.964 282.731 9.922C282.801 9.88 282.86 9.84267 282.906 9.81C282.958 9.77267 283.002 9.754 283.039 9.754C283.105 9.754 283.163 9.79367 283.214 9.873L283.578 10.468C283.364 10.6687 283.105 10.8273 282.801 10.944C282.498 11.056 282.185 11.112 281.863 11.112ZM288.834 5.078C288.778 5.18067 288.691 5.232 288.575 5.232C288.505 5.232 288.425 5.20633 288.337 5.155C288.248 5.10367 288.138 5.04767 288.008 4.987C287.882 4.92167 287.73 4.86333 287.553 4.812C287.375 4.756 287.165 4.728 286.923 4.728C286.713 4.728 286.524 4.756 286.356 4.812C286.188 4.86333 286.043 4.93567 285.922 5.029C285.805 5.12233 285.714 5.232 285.649 5.358C285.588 5.47933 285.558 5.61233 285.558 5.757C285.558 5.939 285.609 6.09067 285.712 6.212C285.819 6.33333 285.959 6.43833 286.132 6.527C286.304 6.61567 286.5 6.695 286.72 6.765C286.939 6.83033 287.163 6.90267 287.392 6.982C287.625 7.05667 287.851 7.14067 288.071 7.234C288.29 7.32733 288.486 7.444 288.659 7.584C288.831 7.724 288.969 7.89667 289.072 8.102C289.179 8.30267 289.233 8.54533 289.233 8.83C289.233 9.15667 289.174 9.46 289.058 9.74C288.941 10.0153 288.768 10.2557 288.54 10.461C288.311 10.6617 288.031 10.8203 287.7 10.937C287.368 11.0537 286.986 11.112 286.552 11.112C286.057 11.112 285.609 11.0327 285.208 10.874C284.806 10.7107 284.466 10.503 284.186 10.251L284.48 9.775C284.517 9.71433 284.561 9.66767 284.613 9.635C284.664 9.60233 284.729 9.586 284.809 9.586C284.893 9.586 284.981 9.61867 285.075 9.684C285.168 9.74933 285.28 9.82167 285.411 9.901C285.546 9.98033 285.709 10.0527 285.901 10.118C286.092 10.1833 286.33 10.216 286.615 10.216C286.857 10.216 287.07 10.1857 287.252 10.125C287.434 10.0597 287.585 9.97333 287.707 9.866C287.828 9.75867 287.917 9.635 287.973 9.495C288.033 9.355 288.064 9.20567 288.064 9.047C288.064 8.851 288.01 8.69 287.903 8.564C287.8 8.43333 287.662 8.32367 287.49 8.235C287.317 8.14167 287.119 8.06233 286.895 7.997C286.675 7.927 286.449 7.85467 286.216 7.78C285.987 7.70533 285.761 7.62133 285.537 7.528C285.317 7.43 285.121 7.30867 284.949 7.164C284.776 7.01933 284.636 6.842 284.529 6.632C284.426 6.41733 284.375 6.15833 284.375 5.855C284.375 5.58433 284.431 5.32533 284.543 5.078C284.655 4.826 284.818 4.60667 285.033 4.42C285.247 4.22867 285.511 4.077 285.824 3.965C286.136 3.853 286.493 3.797 286.895 3.797C287.361 3.797 287.779 3.87167 288.148 4.021C288.521 4.16567 288.843 4.36633 289.114 4.623L288.834 5.078Z" fill="black"/>
<path d="M459.657 8.928C459.732 8.928 459.797 8.95833 459.853 9.019L460.392 9.6C459.981 10.076 459.482 10.447 458.894 10.713C458.311 10.979 457.604 11.112 456.773 11.112C456.054 11.112 455.401 10.9883 454.813 10.741C454.225 10.489 453.723 10.139 453.308 9.691C452.893 9.23833 452.571 8.697 452.342 8.067C452.113 7.437 451.999 6.744 451.999 5.988C451.999 5.232 452.118 4.539 452.356 3.909C452.594 3.279 452.928 2.73767 453.357 2.285C453.791 1.83233 454.309 1.48233 454.911 1.235C455.513 0.982999 456.178 0.856999 456.906 0.856999C457.62 0.856999 458.25 0.971333 458.796 1.2C459.342 1.42867 459.823 1.739 460.238 2.131L459.79 2.754C459.762 2.80067 459.725 2.84033 459.678 2.873C459.636 2.901 459.578 2.915 459.503 2.915C459.419 2.915 459.316 2.87067 459.195 2.782C459.074 2.68867 458.915 2.586 458.719 2.474C458.523 2.362 458.278 2.26167 457.984 2.173C457.69 2.07967 457.328 2.033 456.899 2.033C456.381 2.033 455.907 2.124 455.478 2.306C455.049 2.48333 454.678 2.74233 454.365 3.083C454.057 3.42367 453.817 3.839 453.644 4.329C453.471 4.819 453.385 5.372 453.385 5.988C453.385 6.61333 453.474 7.171 453.651 7.661C453.833 8.151 454.078 8.56633 454.386 8.907C454.699 9.243 455.065 9.49967 455.485 9.677C455.91 9.85433 456.367 9.943 456.857 9.943C457.156 9.943 457.424 9.92667 457.662 9.894C457.905 9.85667 458.126 9.80067 458.327 9.726C458.532 9.65133 458.721 9.558 458.894 9.446C459.071 9.32933 459.246 9.19167 459.419 9.033C459.498 8.963 459.578 8.928 459.657 8.928ZM466.282 6.681C466.282 6.39167 466.24 6.128 466.156 5.89C466.076 5.64733 465.957 5.43967 465.799 5.267C465.645 5.08967 465.456 4.95433 465.232 4.861C465.008 4.763 464.753 4.714 464.469 4.714C463.871 4.714 463.398 4.889 463.048 5.239C462.702 5.58433 462.488 6.065 462.404 6.681H466.282ZM467.29 10.006C467.136 10.1927 466.951 10.356 466.737 10.496C466.522 10.6313 466.291 10.7433 466.044 10.832C465.801 10.9207 465.549 10.986 465.288 11.028C465.026 11.0747 464.767 11.098 464.511 11.098C464.021 11.098 463.568 11.0163 463.153 10.853C462.742 10.685 462.385 10.4423 462.082 10.125C461.783 9.803 461.55 9.40633 461.382 8.935C461.214 8.46367 461.13 7.92233 461.13 7.311C461.13 6.81633 461.204 6.35433 461.354 5.925C461.508 5.49567 461.727 5.12467 462.012 4.812C462.296 4.49467 462.644 4.24733 463.055 4.07C463.465 3.888 463.927 3.797 464.441 3.797C464.865 3.797 465.257 3.86933 465.617 4.014C465.981 4.154 466.293 4.35933 466.555 4.63C466.821 4.896 467.028 5.22733 467.178 5.624C467.327 6.016 467.402 6.464 467.402 6.968C467.402 7.164 467.381 7.29467 467.339 7.36C467.297 7.42533 467.217 7.458 467.101 7.458H462.362C462.376 7.906 462.436 8.29567 462.544 8.627C462.656 8.95833 462.81 9.236 463.006 9.46C463.202 9.67933 463.435 9.845 463.706 9.957C463.976 10.0643 464.28 10.118 464.616 10.118C464.928 10.118 465.197 10.083 465.421 10.013C465.649 9.93833 465.845 9.859 466.009 9.775C466.172 9.691 466.307 9.614 466.415 9.544C466.527 9.46933 466.622 9.432 466.702 9.432C466.804 9.432 466.884 9.47167 466.94 9.551L467.29 10.006ZM470.115 5.33C470.339 4.84467 470.615 4.46667 470.941 4.196C471.268 3.92067 471.667 3.783 472.138 3.783C472.288 3.783 472.43 3.79933 472.565 3.832C472.705 3.86467 472.829 3.916 472.936 3.986L472.845 4.917C472.817 5.03367 472.747 5.092 472.635 5.092C472.57 5.092 472.474 5.078 472.348 5.05C472.222 5.022 472.08 5.008 471.921 5.008C471.697 5.008 471.497 5.04067 471.319 5.106C471.147 5.17133 470.99 5.26933 470.85 5.4C470.715 5.526 470.591 5.68467 470.479 5.876C470.372 6.06267 470.274 6.27733 470.185 6.52V11H468.932V3.909H469.646C469.782 3.909 469.875 3.93467 469.926 3.986C469.978 4.03733 470.013 4.126 470.031 4.252L470.115 5.33ZM480.612 11H479.366V4.952H475.712V9.208C475.712 9.50667 475.784 9.72833 475.929 9.873C476.074 10.0177 476.26 10.09 476.489 10.09C476.62 10.09 476.732 10.0737 476.825 10.041C476.923 10.0037 477.007 9.964 477.077 9.922C477.147 9.88 477.205 9.84267 477.252 9.81C477.303 9.77267 477.348 9.754 477.385 9.754C477.45 9.754 477.509 9.79367 477.56 9.873L477.924 10.468C477.709 10.6687 477.45 10.8273 477.147 10.944C476.844 11.056 476.531 11.112 476.209 11.112C475.649 11.112 475.217 10.9557 474.914 10.643C474.615 10.3303 474.466 9.88 474.466 9.292V4.952H473.612C473.537 4.952 473.474 4.931 473.423 4.889C473.372 4.84233 473.346 4.77233 473.346 4.679V4.182L474.508 4.028L474.795 1.844C474.809 1.774 474.839 1.718 474.886 1.676C474.937 1.62933 475.003 1.606 475.082 1.606H475.712V4.049H480.612V11ZM480.92 1.634C480.92 1.75533 480.894 1.86967 480.843 1.977C480.796 2.07967 480.731 2.17067 480.647 2.25C480.568 2.32933 480.474 2.39233 480.367 2.439C480.26 2.48567 480.145 2.509 480.024 2.509C479.903 2.509 479.788 2.48567 479.681 2.439C479.578 2.39233 479.487 2.32933 479.408 2.25C479.329 2.17067 479.266 2.07967 479.219 1.977C479.172 1.86967 479.149 1.75533 479.149 1.634C479.149 1.51267 479.172 1.39833 479.219 1.291C479.266 1.179 479.329 1.08333 479.408 1.004C479.487 0.919999 479.578 0.854666 479.681 0.807999C479.788 0.761333 479.903 0.737999 480.024 0.737999C480.145 0.737999 480.26 0.761333 480.367 0.807999C480.474 0.854666 480.568 0.919999 480.647 1.004C480.731 1.08333 480.796 1.179 480.843 1.291C480.894 1.39833 480.92 1.51267 480.92 1.634ZM483.135 11V4.973L482.351 4.882C482.248 4.85867 482.167 4.82367 482.106 4.777C482.045 4.72567 482.015 4.65333 482.015 4.56V4.049H483.135V3.657C483.135 3.223 483.203 2.82633 483.338 2.467C483.473 2.103 483.676 1.79033 483.947 1.529C484.218 1.26767 484.554 1.06467 484.955 0.92C485.361 0.775333 485.83 0.702999 486.362 0.702999C486.539 0.702999 486.721 0.714666 486.908 0.737999C487.095 0.761333 487.256 0.796333 487.391 0.842999L487.342 1.494C487.337 1.54067 487.319 1.57333 487.286 1.592C487.258 1.61067 487.218 1.62233 487.167 1.627C487.116 1.63167 487.05 1.634 486.971 1.634C486.896 1.62933 486.81 1.627 486.712 1.627C485.881 1.627 485.279 1.79967 484.906 2.145C484.533 2.48567 484.346 3.00133 484.346 3.692V4.049H488.63V11H487.377V4.952H484.381V11H483.135ZM495.606 5.169C495.568 5.22033 495.531 5.26 495.494 5.288C495.456 5.316 495.405 5.33 495.34 5.33C495.27 5.33 495.193 5.302 495.109 5.246C495.025 5.18533 494.92 5.12 494.794 5.05C494.672 4.98 494.521 4.917 494.339 4.861C494.161 4.80033 493.942 4.77 493.681 4.77C493.331 4.77 493.023 4.833 492.757 4.959C492.491 5.08033 492.267 5.25767 492.085 5.491C491.907 5.72433 491.772 6.00667 491.679 6.338C491.59 6.66933 491.546 7.04033 491.546 7.451C491.546 7.88033 491.595 8.263 491.693 8.599C491.791 8.93033 491.928 9.21033 492.106 9.439C492.288 9.663 492.505 9.83567 492.757 9.957C493.013 10.0737 493.3 10.132 493.618 10.132C493.921 10.132 494.171 10.097 494.367 10.027C494.563 9.95233 494.724 9.87067 494.85 9.782C494.98 9.69333 495.088 9.614 495.172 9.544C495.26 9.46933 495.347 9.432 495.431 9.432C495.533 9.432 495.613 9.47167 495.669 9.551L496.019 10.006C495.865 10.1973 495.69 10.3607 495.494 10.496C495.298 10.6313 495.085 10.7457 494.857 10.839C494.633 10.9277 494.397 10.993 494.15 11.035C493.902 11.077 493.65 11.098 493.394 11.098C492.95 11.098 492.537 11.0163 492.155 10.853C491.777 10.6897 491.448 10.454 491.168 10.146C490.888 9.83333 490.668 9.45067 490.51 8.998C490.351 8.54533 490.272 8.02967 490.272 7.451C490.272 6.92367 490.344 6.436 490.489 5.988C490.638 5.54 490.853 5.155 491.133 4.833C491.417 4.50633 491.765 4.252 492.176 4.07C492.591 3.888 493.067 3.797 493.604 3.797C494.103 3.797 494.542 3.87867 494.92 4.042C495.302 4.20067 495.641 4.427 495.935 4.721L495.606 5.169ZM501.199 7.808C500.625 7.82667 500.135 7.87333 499.729 7.948C499.328 8.018 498.999 8.11133 498.742 8.228C498.49 8.34467 498.306 8.48233 498.189 8.641C498.077 8.79967 498.021 8.977 498.021 9.173C498.021 9.35967 498.051 9.52067 498.112 9.656C498.173 9.79133 498.254 9.90333 498.357 9.992C498.464 10.076 498.588 10.139 498.728 10.181C498.873 10.2183 499.027 10.237 499.19 10.237C499.409 10.237 499.61 10.216 499.792 10.174C499.974 10.1273 500.144 10.062 500.303 9.978C500.466 9.894 500.62 9.79367 500.765 9.677C500.914 9.56033 501.059 9.42733 501.199 9.278V7.808ZM497.174 4.91C497.566 4.532 497.988 4.24967 498.441 4.063C498.894 3.87633 499.395 3.783 499.946 3.783C500.343 3.783 500.695 3.84833 501.003 3.979C501.311 4.10967 501.57 4.29167 501.78 4.525C501.99 4.75833 502.149 5.04067 502.256 5.372C502.363 5.70333 502.417 6.06733 502.417 6.464V11H501.864C501.743 11 501.649 10.9813 501.584 10.944C501.519 10.902 501.467 10.8227 501.43 10.706L501.29 10.034C501.103 10.2067 500.921 10.3607 500.744 10.496C500.567 10.6267 500.38 10.7387 500.184 10.832C499.988 10.9207 499.778 10.9883 499.554 11.035C499.335 11.0863 499.09 11.112 498.819 11.112C498.544 11.112 498.285 11.0747 498.042 11C497.799 10.9207 497.587 10.804 497.405 10.65C497.228 10.496 497.085 10.3023 496.978 10.069C496.875 9.831 496.824 9.551 496.824 9.229C496.824 8.949 496.901 8.68067 497.055 8.424C497.209 8.16267 497.459 7.93167 497.804 7.731C498.149 7.53033 498.6 7.367 499.155 7.241C499.71 7.11033 500.392 7.03567 501.199 7.017V6.464C501.199 5.91333 501.08 5.498 500.842 5.218C500.604 4.93333 500.256 4.791 499.799 4.791C499.491 4.791 499.232 4.83067 499.022 4.91C498.817 4.98467 498.637 5.071 498.483 5.169C498.334 5.26233 498.203 5.34867 498.091 5.428C497.984 5.50267 497.876 5.54 497.769 5.54C497.685 5.54 497.613 5.519 497.552 5.477C497.491 5.43033 497.44 5.37433 497.398 5.309L497.174 4.91ZM510.799 11H509.553V4.952H505.899V9.208C505.899 9.50667 505.972 9.72833 506.116 9.873C506.261 10.0177 506.448 10.09 506.676 10.09C506.807 10.09 506.919 10.0737 507.012 10.041C507.11 10.0037 507.194 9.964 507.264 9.922C507.334 9.88 507.393 9.84267 507.439 9.81C507.491 9.77267 507.535 9.754 507.572 9.754C507.638 9.754 507.696 9.79367 507.747 9.873L508.111 10.468C507.897 10.6687 507.638 10.8273 507.334 10.944C507.031 11.056 506.718 11.112 506.396 11.112C505.836 11.112 505.405 10.9557 505.101 10.643C504.803 10.3303 504.653 9.88 504.653 9.292V4.952H503.799C503.725 4.952 503.662 4.931 503.61 4.889C503.559 4.84233 503.533 4.77233 503.533 4.679V4.182L504.695 4.028L504.982 1.844C504.996 1.774 505.027 1.718 505.073 1.676C505.125 1.62933 505.19 1.606 505.269 1.606H505.899V4.049H510.799V11ZM511.107 1.634C511.107 1.75533 511.082 1.86967 511.03 1.977C510.984 2.07967 510.918 2.17067 510.834 2.25C510.755 2.32933 510.662 2.39233 510.554 2.439C510.447 2.48567 510.333 2.509 510.211 2.509C510.09 2.509 509.976 2.48567 509.868 2.439C509.766 2.39233 509.675 2.32933 509.595 2.25C509.516 2.17067 509.453 2.07967 509.406 1.977C509.36 1.86967 509.336 1.75533 509.336 1.634C509.336 1.51267 509.36 1.39833 509.406 1.291C509.453 1.179 509.516 1.08333 509.595 1.004C509.675 0.919999 509.766 0.854666 509.868 0.807999C509.976 0.761333 510.09 0.737999 510.211 0.737999C510.333 0.737999 510.447 0.761333 510.554 0.807999C510.662 0.854666 510.755 0.919999 510.834 1.004C510.918 1.08333 510.984 1.179 511.03 1.291C511.082 1.39833 511.107 1.51267 511.107 1.634ZM515.835 3.797C516.353 3.797 516.82 3.88333 517.235 4.056C517.651 4.22867 518.005 4.47367 518.299 4.791C518.593 5.10833 518.817 5.49333 518.971 5.946C519.13 6.394 519.209 6.89567 519.209 7.451C519.209 8.011 519.13 8.515 518.971 8.963C518.817 9.411 518.593 9.79367 518.299 10.111C518.005 10.4283 517.651 10.6733 517.235 10.846C516.82 11.014 516.353 11.098 515.835 11.098C515.313 11.098 514.841 11.014 514.421 10.846C514.006 10.6733 513.651 10.4283 513.357 10.111C513.063 9.79367 512.837 9.411 512.678 8.963C512.524 8.515 512.447 8.011 512.447 7.451C512.447 6.89567 512.524 6.394 512.678 5.946C512.837 5.49333 513.063 5.10833 513.357 4.791C513.651 4.47367 514.006 4.22867 514.421 4.056C514.841 3.88333 515.313 3.797 515.835 3.797ZM515.835 10.125C516.535 10.125 517.058 9.89167 517.403 9.425C517.749 8.95367 517.921 8.298 517.921 7.458C517.921 6.61333 517.749 5.95533 517.403 5.484C517.058 5.01267 516.535 4.777 515.835 4.777C515.481 4.777 515.17 4.83767 514.904 4.959C514.643 5.08033 514.424 5.25533 514.246 5.484C514.074 5.71267 513.943 5.995 513.854 6.331C513.77 6.66233 513.728 7.038 513.728 7.458C513.728 8.298 513.901 8.95367 514.246 9.425C514.596 9.89167 515.126 10.125 515.835 10.125ZM521.966 4.938C522.12 4.76533 522.283 4.609 522.456 4.469C522.628 4.329 522.81 4.21 523.002 4.112C523.198 4.00933 523.403 3.93233 523.618 3.881C523.837 3.825 524.073 3.797 524.325 3.797C524.712 3.797 525.053 3.86233 525.347 3.993C525.645 4.119 525.893 4.301 526.089 4.539C526.289 4.77233 526.441 5.05467 526.544 5.386C526.646 5.71733 526.698 6.08367 526.698 6.485V11H525.445V6.485C525.445 5.94833 525.321 5.533 525.074 5.239C524.831 4.94033 524.46 4.791 523.961 4.791C523.592 4.791 523.247 4.87967 522.925 5.057C522.607 5.23433 522.313 5.47467 522.043 5.778V11H520.79V3.909H521.539C521.716 3.909 521.826 3.99533 521.868 4.168L521.966 4.938ZM532.726 5.078C532.67 5.18067 532.584 5.232 532.467 5.232C532.397 5.232 532.318 5.20633 532.229 5.155C532.141 5.10367 532.031 5.04767 531.9 4.987C531.774 4.92167 531.623 4.86333 531.445 4.812C531.268 4.756 531.058 4.728 530.815 4.728C530.605 4.728 530.416 4.756 530.248 4.812C530.08 4.86333 529.936 4.93567 529.814 5.029C529.698 5.12233 529.607 5.232 529.541 5.358C529.481 5.47933 529.45 5.61233 529.45 5.757C529.45 5.939 529.502 6.09067 529.604 6.212C529.712 6.33333 529.852 6.43833 530.024 6.527C530.197 6.61567 530.393 6.695 530.612 6.765C530.832 6.83033 531.056 6.90267 531.284 6.982C531.518 7.05667 531.744 7.14067 531.963 7.234C532.183 7.32733 532.379 7.444 532.551 7.584C532.724 7.724 532.862 7.89667 532.964 8.102C533.072 8.30267 533.125 8.54533 533.125 8.83C533.125 9.15667 533.067 9.46 532.95 9.74C532.834 10.0153 532.661 10.2557 532.432 10.461C532.204 10.6617 531.924 10.8203 531.592 10.937C531.261 11.0537 530.878 11.112 530.444 11.112C529.95 11.112 529.502 11.0327 529.1 10.874C528.699 10.7107 528.358 10.503 528.078 10.251L528.372 9.775C528.41 9.71433 528.454 9.66767 528.505 9.635C528.557 9.60233 528.622 9.586 528.701 9.586C528.785 9.586 528.874 9.61867 528.967 9.684C529.061 9.74933 529.173 9.82167 529.303 9.901C529.439 9.98033 529.602 10.0527 529.793 10.118C529.985 10.1833 530.223 10.216 530.507 10.216C530.75 10.216 530.962 10.1857 531.144 10.125C531.326 10.0597 531.478 9.97333 531.599 9.866C531.721 9.75867 531.809 9.635 531.865 9.495C531.926 9.355 531.956 9.20567 531.956 9.047C531.956 8.851 531.903 8.69 531.795 8.564C531.693 8.43333 531.555 8.32367 531.382 8.235C531.21 8.14167 531.011 8.06233 530.787 7.997C530.568 7.927 530.342 7.85467 530.108 7.78C529.88 7.70533 529.653 7.62133 529.429 7.528C529.21 7.43 529.014 7.30867 528.841 7.164C528.669 7.01933 528.529 6.842 528.421 6.632C528.319 6.41733 528.267 6.15833 528.267 5.855C528.267 5.58433 528.323 5.32533 528.435 5.078C528.547 4.826 528.711 4.60667 528.925 4.42C529.14 4.22867 529.404 4.077 529.716 3.965C530.029 3.853 530.386 3.797 530.787 3.797C531.254 3.797 531.672 3.87167 532.04 4.021C532.414 4.16567 532.736 4.36633 533.006 4.623L532.726 5.078Z" fill="black"/>
<path d="M691.626 8.928C691.7 8.928 691.766 8.95833 691.822 9.019L692.361 9.6C691.95 10.076 691.451 10.447 690.863 10.713C690.279 10.979 689.572 11.112 688.742 11.112C688.023 11.112 687.37 10.9883 686.782 10.741C686.194 10.489 685.692 10.139 685.277 9.691C684.861 9.23833 684.539 8.697 684.311 8.067C684.082 7.437 683.968 6.744 683.968 5.988C683.968 5.232 684.087 4.539 684.325 3.909C684.563 3.279 684.896 2.73767 685.326 2.285C685.76 1.83233 686.278 1.48233 686.88 1.235C687.482 0.982999 688.147 0.856999 688.875 0.856999C689.589 0.856999 690.219 0.971333 690.765 1.2C691.311 1.42867 691.791 1.739 692.207 2.131L691.759 2.754C691.731 2.80067 691.693 2.84033 691.647 2.873C691.605 2.901 691.546 2.915 691.472 2.915C691.388 2.915 691.285 2.87067 691.164 2.782C691.042 2.68867 690.884 2.586 690.688 2.474C690.492 2.362 690.247 2.26167 689.953 2.173C689.659 2.07967 689.297 2.033 688.868 2.033C688.35 2.033 687.876 2.124 687.447 2.306C687.017 2.48333 686.646 2.74233 686.334 3.083C686.026 3.42367 685.785 3.839 685.613 4.329C685.44 4.819 685.354 5.372 685.354 5.988C685.354 6.61333 685.442 7.171 685.62 7.661C685.802 8.151 686.047 8.56633 686.355 8.907C686.667 9.243 687.034 9.49967 687.454 9.677C687.878 9.85433 688.336 9.943 688.826 9.943C689.124 9.943 689.393 9.92667 689.631 9.894C689.873 9.85667 690.095 9.80067 690.296 9.726C690.501 9.65133 690.69 9.558 690.863 9.446C691.04 9.32933 691.215 9.19167 691.388 9.033C691.467 8.963 691.546 8.928 691.626 8.928ZM696.494 3.797C697.012 3.797 697.478 3.88333 697.894 4.056C698.309 4.22867 698.664 4.47367 698.958 4.791C699.252 5.10833 699.476 5.49333 699.63 5.946C699.788 6.394 699.868 6.89567 699.868 7.451C699.868 8.011 699.788 8.515 699.63 8.963C699.476 9.411 699.252 9.79367 698.958 10.111C698.664 10.4283 698.309 10.6733 697.894 10.846C697.478 11.014 697.012 11.098 696.494 11.098C695.971 11.098 695.5 11.014 695.08 10.846C694.664 10.6733 694.31 10.4283 694.016 10.111C693.722 9.79367 693.495 9.411 693.337 8.963C693.183 8.515 693.106 8.011 693.106 7.451C693.106 6.89567 693.183 6.394 693.337 5.946C693.495 5.49333 693.722 5.10833 694.016 4.791C694.31 4.47367 694.664 4.22867 695.08 4.056C695.5 3.88333 695.971 3.797 696.494 3.797ZM696.494 10.125C697.194 10.125 697.716 9.89167 698.062 9.425C698.407 8.95367 698.58 8.298 698.58 7.458C698.58 6.61333 698.407 5.95533 698.062 5.484C697.716 5.01267 697.194 4.777 696.494 4.777C696.139 4.777 695.829 4.83767 695.563 4.959C695.301 5.08033 695.082 5.25533 694.905 5.484C694.732 5.71267 694.601 5.995 694.513 6.331C694.429 6.66233 694.387 7.038 694.387 7.458C694.387 8.298 694.559 8.95367 694.905 9.425C695.255 9.89167 695.784 10.125 696.494 10.125ZM701.448 11V3.909H702.197C702.374 3.909 702.484 3.99533 702.526 4.168L702.617 4.896C702.878 4.574 703.172 4.31033 703.499 4.105C703.826 3.89967 704.204 3.797 704.633 3.797C705.109 3.797 705.494 3.93 705.788 4.196C706.087 4.462 706.301 4.82133 706.432 5.274C706.535 5.01733 706.665 4.79567 706.824 4.609C706.987 4.42233 707.169 4.26833 707.37 4.147C707.571 4.02567 707.783 3.937 708.007 3.881C708.236 3.825 708.467 3.797 708.7 3.797C709.073 3.797 709.405 3.85767 709.694 3.979C709.988 4.09567 710.235 4.26833 710.436 4.497C710.641 4.72567 710.798 5.008 710.905 5.344C711.012 5.67533 711.066 6.05567 711.066 6.485V11H709.813V6.485C709.813 5.92967 709.692 5.50967 709.449 5.225C709.206 4.93567 708.856 4.791 708.399 4.791C708.194 4.791 707.998 4.82833 707.811 4.903C707.629 4.973 707.468 5.078 707.328 5.218C707.188 5.358 707.076 5.53533 706.992 5.75C706.913 5.96 706.873 6.205 706.873 6.485V11H705.62V6.485C705.62 5.91567 705.506 5.491 705.277 5.211C705.048 4.931 704.715 4.791 704.276 4.791C703.968 4.791 703.683 4.875 703.422 5.043C703.161 5.20633 702.92 5.43033 702.701 5.715V11H701.448ZM712.96 11V3.909H713.709C713.886 3.909 713.996 3.99533 714.038 4.168L714.129 4.896C714.39 4.574 714.684 4.31033 715.011 4.105C715.337 3.89967 715.715 3.797 716.145 3.797C716.621 3.797 717.006 3.93 717.3 4.196C717.598 4.462 717.813 4.82133 717.944 5.274C718.046 5.01733 718.177 4.79567 718.336 4.609C718.499 4.42233 718.681 4.26833 718.882 4.147C719.082 4.02567 719.295 3.937 719.519 3.881C719.747 3.825 719.978 3.797 720.212 3.797C720.585 3.797 720.916 3.85767 721.206 3.979C721.5 4.09567 721.747 4.26833 721.948 4.497C722.153 4.72567 722.309 5.008 722.417 5.344C722.524 5.67533 722.578 6.05567 722.578 6.485V11H721.325V6.485C721.325 5.92967 721.203 5.50967 720.961 5.225C720.718 4.93567 720.368 4.791 719.911 4.791C719.705 4.791 719.509 4.82833 719.323 4.903C719.141 4.973 718.98 5.078 718.84 5.218C718.7 5.358 718.588 5.53533 718.504 5.75C718.424 5.96 718.385 6.205 718.385 6.485V11H717.132V6.485C717.132 5.91567 717.017 5.491 716.789 5.211C716.56 4.931 716.226 4.791 715.788 4.791C715.48 4.791 715.195 4.875 714.934 5.043C714.672 5.20633 714.432 5.43033 714.213 5.715V11H712.96ZM730.302 3.909V11H729.56C729.383 11 729.271 10.9137 729.224 10.741L729.126 9.978C728.818 10.3187 728.473 10.594 728.09 10.804C727.708 11.0093 727.269 11.112 726.774 11.112C726.387 11.112 726.044 11.049 725.745 10.923C725.451 10.7923 725.204 10.6103 725.003 10.377C724.803 10.1437 724.651 9.86133 724.548 9.53C724.45 9.19867 724.401 8.83233 724.401 8.431V3.909H725.647V8.431C725.647 8.96767 725.769 9.383 726.011 9.677C726.259 9.971 726.634 10.118 727.138 10.118C727.507 10.118 727.85 10.0317 728.167 9.859C728.489 9.68167 728.786 9.439 729.056 9.131V3.909H730.302ZM733.454 4.938C733.608 4.76533 733.771 4.609 733.944 4.469C734.117 4.329 734.299 4.21 734.49 4.112C734.686 4.00933 734.891 3.93233 735.106 3.881C735.325 3.825 735.561 3.797 735.813 3.797C736.2 3.797 736.541 3.86233 736.835 3.993C737.134 4.119 737.381 4.301 737.577 4.539C737.778 4.77233 737.929 5.05467 738.032 5.386C738.135 5.71733 738.186 6.08367 738.186 6.485V11H736.933V6.485C736.933 5.94833 736.809 5.533 736.562 5.239C736.319 4.94033 735.948 4.791 735.449 4.791C735.08 4.791 734.735 4.87967 734.413 5.057C734.096 5.23433 733.802 5.47467 733.531 5.778V11H732.278V3.909H733.027C733.204 3.909 733.314 3.99533 733.356 4.168L733.454 4.938ZM741.401 3.909V11H740.155V3.909H741.401ZM741.667 1.683C741.667 1.80433 741.641 1.91867 741.59 2.026C741.543 2.12867 741.478 2.222 741.394 2.306C741.314 2.38533 741.219 2.44833 741.107 2.495C740.999 2.54167 740.885 2.565 740.764 2.565C740.642 2.565 740.528 2.54167 740.421 2.495C740.318 2.44833 740.227 2.38533 740.148 2.306C740.068 2.222 740.005 2.12867 739.959 2.026C739.912 1.91867 739.889 1.80433 739.889 1.683C739.889 1.56167 739.912 1.44733 739.959 1.34C740.005 1.228 740.068 1.13233 740.148 1.053C740.227 0.969 740.318 0.903666 740.421 0.856999C740.528 0.810333 740.642 0.786999 740.764 0.786999C740.885 0.786999 740.999 0.810333 741.107 0.856999C741.219 0.903666 741.314 0.969 741.394 1.053C741.478 1.13233 741.543 1.228 741.59 1.34C741.641 1.44733 741.667 1.56167 741.667 1.683ZM745.625 11.112C745.065 11.112 744.633 10.9557 744.33 10.643C744.031 10.3303 743.882 9.88 743.882 9.292V4.952H743.028C742.953 4.952 742.89 4.931 742.839 4.889C742.788 4.84233 742.762 4.77233 742.762 4.679V4.182L743.924 4.035L744.211 1.844C744.225 1.774 744.255 1.718 744.302 1.676C744.353 1.62933 744.419 1.606 744.498 1.606H745.128V4.049H747.179V4.952H745.128V9.208C745.128 9.50667 745.2 9.72833 745.345 9.873C745.49 10.0177 745.676 10.09 745.905 10.09C746.036 10.09 746.148 10.0737 746.241 10.041C746.339 10.0037 746.423 9.964 746.493 9.922C746.563 9.88 746.621 9.84267 746.668 9.81C746.719 9.77267 746.764 9.754 746.801 9.754C746.866 9.754 746.925 9.79367 746.976 9.873L747.34 10.468C747.125 10.6687 746.866 10.8273 746.563 10.944C746.26 11.056 745.947 11.112 745.625 11.112ZM754.584 3.909L750.629 13.093C750.587 13.1863 750.533 13.261 750.468 13.317C750.407 13.373 750.311 13.401 750.181 13.401H749.257L750.552 10.587L747.626 3.909H748.704C748.811 3.909 748.895 3.937 748.956 3.993C749.021 4.04433 749.065 4.10267 749.089 4.168L750.986 8.634C751.06 8.83 751.123 9.03533 751.175 9.25C751.24 9.03067 751.31 8.823 751.385 8.627L753.226 4.168C753.254 4.09333 753.3 4.03267 753.366 3.986C753.436 3.93467 753.513 3.909 753.597 3.909H754.584Z" fill="black"/>
<circle cx="38" cy="38" r="15" fill="#871E99"/>
</svg>
