<svg width="299" height="285" viewBox="0 0 299 285" fill="none" xmlns="http://www.w3.org/2000/svg">
<g clip-path="url(#clip0)">
<path d="M180.975 15.99L25.1986 49.4545L71.3796 264.948L227.156 231.483L180.975 15.99Z" fill="#E0E0E0"/>
<g opacity="0.5">
<path opacity="0.5" d="M179.125 20.1989L28.6136 52.5324L73.2336 260.741L223.745 228.408L179.125 20.1989Z" fill="url(#paint0_linear)"/>
</g>
<path d="M177.535 22.1431L30.8561 53.6534L74.4902 257.262L221.17 225.752L177.535 22.1431Z" fill="#FAFAFA"/>
<path d="M138.879 21.2143L66.1135 36.8461L69.8955 54.494L142.661 38.8621L138.879 21.2143Z" fill="url(#paint1_linear)"/>
<path d="M98.8002 11.7933C93.1823 13.0015 89.6278 18.6481 90.8637 24.4043C92.0996 30.1604 97.6518 33.8543 103.259 32.6461C108.866 31.4379 112.431 25.7913 111.195 20.0352C109.959 14.279 104.418 10.5852 98.8002 11.7933ZM102.326 28.2551C101.138 28.5386 99.8935 28.4617 98.7499 28.0343C97.6064 27.6069 96.6159 26.8482 95.9046 25.8551C95.1933 24.8619 94.7934 23.6792 94.756 22.4576C94.7186 21.2361 95.0453 20.0311 95.6945 18.9961C96.3436 17.9612 97.2858 17.1432 98.4011 16.6464C99.5163 16.1496 100.754 15.9965 101.956 16.2066C103.159 16.4167 104.272 16.9806 105.153 17.8262C106.034 18.6719 106.644 19.7611 106.904 20.955C107.085 21.7354 107.109 22.5438 106.976 23.3337C106.843 24.1236 106.556 24.8794 106.13 25.5577C105.705 26.236 105.15 26.8235 104.497 27.2864C103.844 27.7493 103.106 28.0785 102.326 28.2551Z" fill="url(#paint2_linear)"/>
<path d="M137.951 20.6219L66.7176 35.9245L70.3329 52.7944L141.566 37.4918L137.951 20.6219Z" fill="#9179F0"/>
<path d="M98.8002 11.7933C96.8313 12.2164 95.0318 13.2146 93.6294 14.6616C92.2271 16.1087 91.2848 17.9395 90.9217 19.9227C90.5585 21.9059 90.7909 23.9524 91.5895 25.8034C92.388 27.6543 93.7168 29.2267 95.4078 30.3215C97.0989 31.4164 99.0762 31.9846 101.09 31.9544C103.103 31.9241 105.063 31.2967 106.72 30.1516C108.378 29.0064 109.659 27.3949 110.401 25.5208C111.144 23.6466 111.315 21.5941 110.893 19.6227C110.612 18.3136 110.077 17.0726 109.318 15.9707C108.558 14.8687 107.589 13.9273 106.466 13.2003C105.343 12.4733 104.088 11.9748 102.773 11.7334C101.458 11.492 100.108 11.5124 98.8002 11.7933ZM102.169 27.5251C101.032 27.7692 99.849 27.6705 98.7686 27.2413C97.6881 26.8121 96.7591 26.0717 96.0989 25.1139C95.4388 24.156 95.0771 23.0237 95.0598 21.86C95.0424 20.6964 95.3701 19.5537 96.0014 18.5765C96.6326 17.5994 97.5392 16.8316 98.6063 16.3702C99.6735 15.9089 100.853 15.7748 101.997 15.9849C103.14 16.1949 104.195 16.7397 105.029 17.5503C105.863 18.3609 106.438 19.4009 106.682 20.5389C107.009 22.0645 106.717 23.6576 105.87 24.9677C105.024 26.2778 103.693 27.1977 102.169 27.5251Z" fill="#9179F0"/>
<path d="M253.338 42.6728H94.0172V263.07H253.338V42.6728Z" fill="#E0E0E0"/>
<g opacity="0.5">
<path opacity="0.5" d="M250.648 46.3995H96.7112V259.347H250.648V46.3995Z" fill="url(#paint3_linear)"/>
</g>
<path d="M248.687 47.969H98.6689V256.212H248.687V47.969Z" fill="white"/>
<path d="M211.086 38.9388H136.664V56.9883H211.086V38.9388Z" fill="#9179F0"/>
<path d="M173.875 21.32C168.129 21.32 163.47 26.0943 163.47 31.9854C163.47 37.8766 168.129 42.6509 173.875 42.6509C179.62 42.6509 184.279 37.8766 184.279 31.9854C184.279 26.0943 179.62 21.32 173.875 21.32ZM173.875 38.1394C172.653 38.1685 171.451 37.8323 170.421 37.174C169.391 36.5157 168.581 35.565 168.093 34.4434C167.605 33.3218 167.463 32.0801 167.683 30.8769C167.904 29.6736 168.477 28.5635 169.331 27.6882C170.184 26.8129 171.279 26.2121 172.475 25.9626C173.671 25.713 174.914 25.8261 176.046 26.2873C177.178 26.7484 178.146 27.5368 178.828 28.5518C179.511 29.5667 179.875 30.7622 179.875 31.9854C179.887 33.5932 179.262 35.1402 178.138 36.288C177.013 37.4358 175.48 38.091 173.875 38.1102V38.1394Z" fill="url(#paint4_linear)"/>
<path d="M210.302 38.165H137.448V55.4188H210.302V38.165Z" fill="#9179F0"/>
<path d="M173.875 21.32C171.861 21.32 169.892 21.9179 168.218 23.0381C166.543 24.1583 165.238 25.7505 164.467 27.6133C163.697 29.4761 163.495 31.5259 163.888 33.5034C164.281 35.481 165.251 37.2975 166.675 38.7233C168.099 40.149 169.913 41.1199 171.888 41.5133C173.863 41.9067 175.911 41.7048 177.771 40.9332C179.632 40.1616 181.222 38.8549 182.341 37.1784C183.46 35.5019 184.057 33.5309 184.057 31.5146C184.057 28.8108 182.984 26.2178 181.075 24.3059C179.165 22.394 176.575 21.32 173.875 21.32ZM173.875 37.3985C172.713 37.397 171.578 37.0511 170.613 36.4043C169.648 35.7575 168.896 34.839 168.452 33.7646C168.008 32.6901 167.892 31.5081 168.118 30.3676C168.344 29.2271 168.903 28.1793 169.724 27.3566C170.545 26.5339 171.59 25.9731 172.729 25.745C173.868 25.5169 175.049 25.6318 176.122 26.0751C177.196 26.5184 178.115 27.2703 178.762 28.2358C179.409 29.2013 179.756 30.3372 179.759 31.5C179.758 32.273 179.606 33.0383 179.31 33.7522C179.014 34.4661 178.58 35.1147 178.034 35.6607C177.487 36.2068 176.839 36.6397 176.125 36.9348C175.411 37.2298 174.647 37.3812 173.875 37.3802V37.3985Z" fill="#9179F0"/>
<g opacity="0.5">
<path opacity="0.5" d="M6.93765 269.027H5.56689V276.813H6.93765V269.027Z" fill="#47E6B1"/>
<path opacity="0.5" d="M10.1422 273.608V272.236H2.36604V273.608H10.1422Z" fill="#47E6B1"/>
</g>
<g opacity="0.5">
<path opacity="0.5" d="M165.967 0H164.597V7.78557H165.967V0Z" fill="#47E6B1"/>
<path opacity="0.5" d="M169.172 4.57715V3.20474L161.396 3.20474V4.57715H169.172Z" fill="#47E6B1"/>
</g>
<path opacity="0.5" d="M281.107 281.989C280.729 281.824 280.425 281.526 280.252 281.151C280.079 280.776 280.05 280.351 280.17 279.956C280.19 279.895 280.202 279.833 280.207 279.769C280.218 279.589 280.17 279.409 280.071 279.258C279.972 279.106 279.827 278.99 279.658 278.928C279.488 278.865 279.302 278.859 279.129 278.91C278.955 278.961 278.803 279.066 278.694 279.211C278.656 279.262 278.624 279.317 278.599 279.375C278.434 279.754 278.137 280.059 277.762 280.232C277.388 280.405 276.963 280.434 276.568 280.313C276.508 280.294 276.446 280.282 276.383 280.277C276.202 280.266 276.023 280.314 275.871 280.413C275.72 280.512 275.604 280.657 275.542 280.827C275.479 280.997 275.473 281.182 275.524 281.356C275.575 281.53 275.68 281.683 275.825 281.792C275.876 281.83 275.931 281.861 275.989 281.886C276.367 282.051 276.671 282.349 276.844 282.724C277.017 283.099 277.046 283.525 276.926 283.92C276.906 283.98 276.894 284.042 276.889 284.106C276.878 284.286 276.926 284.466 277.025 284.618C277.124 284.769 277.269 284.885 277.439 284.948C277.608 285.01 277.794 285.016 277.967 284.965C278.141 284.914 278.293 284.809 278.402 284.664C278.44 284.613 278.472 284.558 278.497 284.5C278.662 284.121 278.959 283.817 279.334 283.644C279.708 283.471 280.133 283.442 280.528 283.562C280.588 283.581 280.65 283.594 280.714 283.598C280.894 283.609 281.073 283.562 281.225 283.463C281.376 283.364 281.492 283.218 281.554 283.048C281.617 282.878 281.623 282.693 281.572 282.519C281.521 282.345 281.416 282.193 281.271 282.084C281.221 282.046 281.165 282.014 281.107 281.989Z" fill="#4D8AF0"/>
<path opacity="0.5" d="M49.8249 207.141C49.4468 206.976 49.1424 206.678 48.9696 206.303C48.7969 205.928 48.7678 205.503 48.8879 205.108C48.9073 205.047 48.9196 204.985 48.9244 204.921C48.9353 204.741 48.8877 204.561 48.7888 204.41C48.6899 204.258 48.5448 204.142 48.3751 204.08C48.2054 204.017 48.02 204.011 47.8465 204.062C47.6729 204.113 47.5204 204.218 47.4115 204.363C47.3735 204.414 47.3417 204.469 47.3167 204.527C47.1521 204.906 46.8542 205.211 46.4798 205.383C46.1054 205.556 45.6805 205.586 45.2861 205.465C45.2257 205.446 45.1633 205.434 45.1001 205.429C44.9196 205.418 44.7403 205.465 44.5889 205.565C44.4375 205.664 44.3219 205.809 44.2593 205.979C44.1968 206.149 44.1905 206.334 44.2415 206.508C44.2924 206.682 44.3979 206.834 44.5423 206.944C44.5931 206.982 44.6482 207.013 44.7064 207.038C45.0845 207.203 45.3889 207.501 45.5616 207.876C45.7344 208.251 45.7635 208.677 45.6433 209.072C45.6239 209.132 45.6117 209.194 45.6069 209.258C45.596 209.438 45.6435 209.618 45.7425 209.77C45.8414 209.921 45.9865 210.037 46.1562 210.1C46.3259 210.162 46.5112 210.168 46.6848 210.117C46.8584 210.066 47.0109 209.961 47.1198 209.816C47.1577 209.765 47.1895 209.71 47.2146 209.652C47.3792 209.273 47.677 208.969 48.0514 208.796C48.4259 208.623 48.8507 208.594 49.2452 208.714C49.3055 208.733 49.3679 208.745 49.4311 208.75C49.6117 208.761 49.7909 208.714 49.9424 208.615C50.0938 208.516 50.2094 208.37 50.2719 208.2C50.3345 208.03 50.3408 207.845 50.2898 207.671C50.2388 207.497 50.1333 207.345 49.9889 207.236C49.9381 207.198 49.8831 207.166 49.8249 207.141Z" fill="#FDD835"/>
<path opacity="0.5" d="M242.464 24.8861C242.086 24.7213 241.781 24.4231 241.608 24.0482C241.436 23.6733 241.407 23.248 241.527 22.853C241.546 22.7926 241.558 22.7301 241.563 22.6669C241.574 22.4861 241.526 22.3066 241.428 22.155C241.329 22.0034 241.184 21.8877 241.014 21.825C240.844 21.7624 240.659 21.7561 240.485 21.8072C240.312 21.8582 240.159 21.9638 240.05 22.1084C240.012 22.1592 239.98 22.2144 239.955 22.2726C239.791 22.6512 239.493 22.9559 239.119 23.1289C238.744 23.3019 238.319 23.331 237.925 23.2107C237.864 23.1913 237.802 23.179 237.739 23.1742C237.558 23.1633 237.379 23.2109 237.228 23.31C237.076 23.409 236.961 23.5543 236.898 23.7242C236.835 23.8941 236.829 24.0797 236.88 24.2534C236.931 24.4272 237.037 24.5799 237.181 24.689C237.232 24.7269 237.287 24.7588 237.345 24.7839C237.723 24.9487 238.028 25.2469 238.2 25.6218C238.373 25.9966 238.402 26.422 238.282 26.817C238.263 26.8774 238.25 26.9399 238.246 27.0031C238.235 27.1839 238.282 27.3634 238.381 27.515C238.48 27.6666 238.625 27.7823 238.795 27.8449C238.965 27.9076 239.15 27.9139 239.324 27.8628C239.497 27.8118 239.65 27.7062 239.759 27.5616C239.796 27.5107 239.828 27.4556 239.853 27.3973C240.018 27.0188 240.316 26.714 240.69 26.5411C241.065 26.3681 241.489 26.339 241.884 26.4593C241.944 26.4787 242.007 26.4909 242.07 26.4958C242.25 26.5067 242.43 26.459 242.581 26.36C242.733 26.2609 242.848 26.1157 242.911 25.9458C242.973 25.7759 242.98 25.5903 242.929 25.4165C242.878 25.2428 242.772 25.09 242.628 24.981C242.577 24.943 242.522 24.9112 242.464 24.8861Z" fill="#FDD835"/>
<path opacity="0.5" d="M296.258 117.532C297.775 117.532 299.004 116.301 299.004 114.783C299.004 113.265 297.775 112.035 296.258 112.035C294.742 112.035 293.513 113.265 293.513 114.783C293.513 116.301 294.742 117.532 296.258 117.532Z" fill="#F55F44"/>
<path opacity="0.5" d="M84.1156 275.28C85.6317 275.28 86.8608 274.049 86.8608 272.531C86.8608 271.013 85.6317 269.783 84.1156 269.783C82.5995 269.783 81.3705 271.013 81.3705 272.531C81.3705 274.049 82.5995 275.28 84.1156 275.28Z" fill="#F55F44"/>
<path opacity="0.5" d="M268.067 176.94C269.583 176.94 270.812 175.71 270.812 174.192C270.812 172.674 269.583 171.443 268.067 171.443C266.551 171.443 265.322 172.674 265.322 174.192C265.322 175.71 266.551 176.94 268.067 176.94Z" fill="#F55F44"/>
<path opacity="0.5" d="M31.768 37.9168C33.2842 37.9168 34.5132 36.6862 34.5132 35.1683C34.5132 33.6503 33.2842 32.4198 31.768 32.4198C30.2519 32.4198 29.0229 33.6503 29.0229 35.1683C29.0229 36.6862 30.2519 37.9168 31.768 37.9168Z" fill="#4D8AF0"/>
<path opacity="0.5" d="M2.74516 112.893C4.26127 112.893 5.49032 111.662 5.49032 110.144C5.49032 108.626 4.26127 107.396 2.74516 107.396C1.22905 107.396 0 108.626 0 110.144C0 111.662 1.22905 112.893 2.74516 112.893Z" fill="#47E6B1"/>
</g>
<defs>
<linearGradient id="paint0_linear" x1="148.487" y1="244.575" x2="103.764" y2="36.3883" gradientUnits="userSpaceOnUse">
<stop stop-color="#808080" stop-opacity="0.25"/>
<stop offset="0.54" stop-color="#808080" stop-opacity="0.12"/>
<stop offset="1" stop-color="#808080" stop-opacity="0.1"/>
</linearGradient>
<linearGradient id="paint1_linear" x1="40031.3" y1="-5219.18" x2="39843.9" y2="-6091.77" gradientUnits="userSpaceOnUse">
<stop stop-color="#808080" stop-opacity="0.25"/>
<stop offset="0.54" stop-color="#808080" stop-opacity="0.12"/>
<stop offset="1" stop-color="#808080" stop-opacity="0.1"/>
</linearGradient>
<linearGradient id="paint2_linear" x1="11689.3" y1="595.312" x2="11427.7" y2="-622.03" gradientUnits="userSpaceOnUse">
<stop stop-color="#808080" stop-opacity="0.25"/>
<stop offset="0.54" stop-color="#808080" stop-opacity="0.12"/>
<stop offset="1" stop-color="#808080" stop-opacity="0.1"/>
</linearGradient>
<linearGradient id="paint3_linear" x1="73432.2" y1="151352" x2="73432.2" y2="27116.3" gradientUnits="userSpaceOnUse">
<stop stop-color="#808080" stop-opacity="0.25"/>
<stop offset="0.54" stop-color="#808080" stop-opacity="0.12"/>
<stop offset="1" stop-color="#808080" stop-opacity="0.1"/>
</linearGradient>
<linearGradient id="paint4_linear" x1="14040.3" y1="3783.88" x2="14040.3" y2="2537.3" gradientUnits="userSpaceOnUse">
<stop stop-color="#808080" stop-opacity="0.25"/>
<stop offset="0.54" stop-color="#808080" stop-opacity="0.12"/>
<stop offset="1" stop-color="#808080" stop-opacity="0.1"/>
</linearGradient>
<clipPath id="clip0">
<rect width="299" height="285" fill="white"/>
</clipPath>
</defs>
</svg>
