<svg width="18" height="26" viewBox="0 0 18 26" fill="none" xmlns="http://www.w3.org/2000/svg">
<path d="M1 5C1 3.93913 1.42143 2.92172 2.17157 2.17157C2.92172 1.42143 3.93913 1 5 1H9V9H5C3.93913 9 2.92172 8.57857 2.17157 7.82843C1.42143 7.07828 1 6.06087 1 5Z" stroke="#4D8AF0" stroke-width="2" stroke-linecap="round" stroke-linejoin="round"/>
<path d="M9 1H13C13.5253 1 14.0454 1.10346 14.5307 1.30448C15.016 1.5055 15.457 1.80014 15.8284 2.17157C16.1999 2.54301 16.4945 2.98396 16.6955 3.46927C16.8965 3.95457 17 4.47471 17 5C17 5.52529 16.8965 6.04543 16.6955 6.53073C16.4945 7.01604 16.1999 7.45699 15.8284 7.82843C15.457 8.19986 15.016 8.4945 14.5307 8.69552C14.0454 8.89654 13.5253 9 13 9H9V1Z" stroke="#4D8AF0" stroke-width="2" stroke-linecap="round" stroke-linejoin="round"/>
<path d="M9 13C9 12.4747 9.10346 11.9546 9.30448 11.4693C9.5055 10.984 9.80014 10.543 10.1716 10.1716C10.543 9.80014 10.984 9.5055 11.4693 9.30448C11.9546 9.10346 12.4747 9 13 9C13.5253 9 14.0454 9.10346 14.5307 9.30448C15.016 9.5055 15.457 9.80014 15.8284 10.1716C16.1999 10.543 16.4945 10.984 16.6955 11.4693C16.8965 11.9546 17 12.4747 17 13C17 13.5253 16.8965 14.0454 16.6955 14.5307C16.4945 15.016 16.1999 15.457 15.8284 15.8284C15.457 16.1999 15.016 16.4945 14.5307 16.6955C14.0454 16.8965 13.5253 17 13 17C12.4747 17 11.9546 16.8965 11.4693 16.6955C10.984 16.4945 10.543 16.1999 10.1716 15.8284C9.80014 15.457 9.5055 15.016 9.30448 14.5307C9.10346 14.0454 9 13.5253 9 13V13Z" stroke="#4D8AF0" stroke-width="2" stroke-linecap="round" stroke-linejoin="round"/>
<path d="M1 21C1 19.9391 1.42143 18.9217 2.17157 18.1716C2.92172 17.4214 3.93913 17 5 17H9V21C9 22.0609 8.57857 23.0783 7.82843 23.8284C7.07828 24.5786 6.06087 25 5 25C3.93913 25 2.92172 24.5786 2.17157 23.8284C1.42143 23.0783 1 22.0609 1 21Z" stroke="#4D8AF0" stroke-width="2" stroke-linecap="round" stroke-linejoin="round"/>
<path d="M1 13C1 11.9391 1.42143 10.9217 2.17157 10.1716C2.92172 9.42143 3.93913 9 5 9H9V17H5C3.93913 17 2.92172 16.5786 2.17157 15.8284C1.42143 15.0783 1 14.0609 1 13Z" stroke="#4D8AF0" stroke-width="2" stroke-linecap="round" stroke-linejoin="round"/>
</svg>
