<svg width="24" height="24" viewBox="0 0 24 24" fill="none" xmlns="http://www.w3.org/2000/svg">
<path d="M19.7499 3.25068e-06H4.25012C3.69179 -0.000687688 3.13881 0.108773 2.62285 0.322117C2.10689 0.53546 1.63809 0.848495 1.24329 1.24329C0.848495 1.63809 0.53546 2.10689 0.322117 2.62285C0.108773 3.13881 -0.000687688 3.69179 3.25068e-06 4.25012V19.1476C-0.000687688 19.706 0.108773 20.259 0.322117 20.7749C0.53546 21.2909 0.848495 21.7597 1.24329 22.1545C1.63809 22.5493 2.10689 22.8623 2.62285 23.0757C3.13881 23.289 3.69179 23.3985 4.25012 23.3978H19.7499C20.3082 23.3985 20.8612 23.289 21.3771 23.0757C21.8931 22.8623 22.3619 22.5493 22.7567 22.1545C23.1515 21.7597 23.4645 21.2909 23.6779 20.7749C23.8912 20.259 24.0007 19.706 24 19.1476V4.25012C24.0007 3.69179 23.8912 3.13881 23.6779 2.62285C23.4645 2.10689 23.1515 1.63809 22.7567 1.24329C22.3619 0.848495 21.8931 0.53546 21.3771 0.322117C20.8612 0.108773 20.3082 -0.000687688 19.7499 3.25068e-06ZM22.9883 18.7577C22.991 19.2345 22.8995 19.7072 22.719 20.1486C22.5385 20.5899 22.2725 20.9913 21.9364 21.3295C21.6003 21.6677 21.2006 21.9362 20.7603 22.1194C20.3201 22.3027 19.848 22.3971 19.3711 22.3973H4.62961C3.66753 22.3959 2.74525 22.0131 2.06495 21.3328C1.38466 20.6525 1.00186 19.7302 1.00047 18.7682V4.62886C1.00186 3.66678 1.38466 2.7445 2.06495 2.0642C2.74525 1.38391 3.66753 1.00111 4.62961 0.999722H19.3591C20.3216 0.999921 21.2446 1.38234 21.9251 2.06289C22.6057 2.74344 22.9881 3.66641 22.9883 4.62886V18.7577ZM9.4887 10.9489L12.2899 16.3277C12.3409 16.4095 12.3101 16.4875 12.2306 16.4875H10.4884C10.3797 16.4875 10.3287 16.4605 10.2814 16.3585C9.6417 15.0385 8.98847 13.7186 8.32024 12.3004H8.30149C7.68658 13.666 7.05229 15.0229 6.3988 16.3705C6.35305 16.4485 6.30205 16.4792 6.21956 16.4792H4.57036C4.46911 16.4792 4.46161 16.3975 4.51261 16.339L7.25077 11.1199L4.60261 5.83932C4.53961 5.75757 4.60261 5.69832 4.66036 5.69832H6.3793C6.48055 5.69832 6.5203 5.71857 6.5593 5.80707C7.19748 7.13749 7.82125 8.47477 8.43049 9.81869H8.44924C9.03122 8.49874 9.67245 7.12778 10.2889 5.81907C10.3399 5.73732 10.3707 5.68632 10.4689 5.68632H12.0776C12.1594 5.68632 12.1909 5.74932 12.1406 5.82732L9.4887 10.9489ZM12.7811 12.5779C12.7811 10.2499 14.3283 8.42899 16.789 8.42899C16.9997 8.42899 17.1092 8.42899 17.3087 8.44924V5.80107C17.3087 5.73807 17.359 5.69907 17.41 5.69907H18.9879C19.0697 5.69907 19.0899 5.72982 19.0899 5.77707V14.9605C19.0899 15.2298 19.0899 15.5695 19.1409 15.9363C19.1409 15.9992 19.1207 16.018 19.0592 16.0502C18.2596 16.4302 17.3855 16.6277 16.5002 16.6285C14.3283 16.6397 12.7811 15.3003 12.7811 12.5779ZM17.3095 10.0189C17.1248 9.94834 16.9282 9.91397 16.7305 9.91769C15.4698 9.91769 14.5908 10.8897 14.5908 12.4999C14.5908 14.3396 15.4885 15.0775 16.6217 15.0775C16.8595 15.0775 17.122 15.0505 17.3095 14.9688V10.0189Z" fill="#4D8AF0"/>
</svg>
