<svg width="24" height="24" viewBox="0 0 24 24" fill="none" xmlns="http://www.w3.org/2000/svg">
<path d="M0 0.300751V23.6993H24V0.300751H0ZM0.99975 1.3005H22.9995V22.6988H0.99975V1.3005ZM8.32425 13.551L7.5315 16.5473C7.51575 16.6335 7.48425 16.6485 7.38675 16.6485H5.91825C5.817 16.6485 5.80125 16.617 5.817 16.5038L8.6565 6.55875C8.7075 6.37875 8.73825 6.219 8.754 5.7225C8.754 5.65575 8.78925 5.625 8.84025 5.625H10.9342C11.001 5.625 11.0355 5.64075 11.0512 5.7225L14.235 16.5195C14.2545 16.6013 14.235 16.6485 14.1532 16.6485H12.5048C12.4185 16.6485 12.372 16.629 12.3563 16.5623L11.5282 13.5503H8.32125L8.32425 13.551ZM11.1135 11.9258C10.8322 10.8203 10.1722 8.3985 9.92625 7.22625H9.90675C9.696 8.394 9.16425 10.3748 8.75475 11.9258H11.1135ZM15.6135 6.3675C15.6135 5.72325 16.059 5.34375 16.6373 5.34375C17.247 5.34375 17.661 5.75775 17.661 6.3675C17.661 7.0275 17.2312 7.39125 16.6178 7.39125C16.02 7.39125 15.6097 7.02825 15.6097 6.3675H15.6135ZM15.7267 8.64075C15.7267 8.56275 15.7583 8.53125 15.84 8.53125H17.4105C17.5005 8.53125 17.5312 8.56275 17.5312 8.64825V16.5428C17.5312 16.6245 17.5155 16.656 17.4142 16.656H15.867C15.7657 16.656 15.7343 16.6088 15.7343 16.527V8.64L15.7267 8.64075Z" fill="#4D8AF0"/>
</svg>
