<svg width="754" height="53" viewBox="0 0 754 53" fill="none" xmlns="http://www.w3.org/2000/svg">
<circle cx="264" cy="38" r="15" fill="#871E99"/>
<circle cx="491" cy="38" r="15" fill="#871E99"/>
<circle cx="718" cy="38" r="15" fill="#4D8AF0" fill-opacity="0.2"/>
<line x1="52" y1="37.5" x2="249" y2="37.5" stroke="black"/>
<line x1="279" y1="37.5" x2="476" y2="37.5" stroke="black"/>
<line x1="506" y1="37.5" x2="703" y2="37.5" stroke="black"/>
<path d="M3.56329 6.17C3.95062 6.17 4.29129 6.11867 4.58529 6.016C4.88396 5.91333 5.13362 5.771 5.33429 5.589C5.53962 5.40233 5.69362 5.18067 5.79629 4.924C5.89896 4.66733 5.95029 4.385 5.95029 4.077C5.95029 3.43767 5.75196 2.93833 5.35529 2.579C4.96329 2.21967 4.36596 2.04 3.56329 2.04H1.95329V6.17H3.56329ZM3.56329 0.968999C4.19796 0.968999 4.74862 1.04367 5.21529 1.193C5.68662 1.33767 6.07629 1.54533 6.38429 1.816C6.69229 2.08667 6.92096 2.41333 7.07029 2.796C7.22429 3.17867 7.30129 3.60567 7.30129 4.077C7.30129 4.54367 7.21962 4.97067 7.05629 5.358C6.89296 5.74533 6.65262 6.079 6.33529 6.359C6.02262 6.639 5.63296 6.85833 5.16629 7.017C4.70429 7.171 4.16996 7.248 3.56329 7.248H1.95329V11H0.602289V0.968999H3.56329ZM13.0934 6.681C13.0934 6.39167 13.0514 6.128 12.9674 5.89C12.888 5.64733 12.769 5.43967 12.6104 5.267C12.4564 5.08967 12.2674 4.95433 12.0434 4.861C11.8194 4.763 11.565 4.714 11.2804 4.714C10.683 4.714 10.2094 4.889 9.85935 5.239C9.51402 5.58433 9.29935 6.065 9.21535 6.681H13.0934ZM14.1014 10.006C13.9474 10.1927 13.763 10.356 13.5484 10.496C13.3337 10.6313 13.1027 10.7433 12.8554 10.832C12.6127 10.9207 12.3607 10.986 12.0994 11.028C11.838 11.0747 11.579 11.098 11.3224 11.098C10.8324 11.098 10.3797 11.0163 9.96435 10.853C9.55368 10.685 9.19668 10.4423 8.89335 10.125C8.59468 9.803 8.36135 9.40633 8.19335 8.935C8.02535 8.46367 7.94135 7.92233 7.94135 7.311C7.94135 6.81633 8.01602 6.35433 8.16535 5.925C8.31935 5.49567 8.53868 5.12467 8.82335 4.812C9.10802 4.49467 9.45568 4.24733 9.86635 4.07C10.277 3.888 10.739 3.797 11.2524 3.797C11.677 3.797 12.069 3.86933 12.4284 4.014C12.7924 4.154 13.105 4.35933 13.3664 4.63C13.6324 4.896 13.84 5.22733 13.9894 5.624C14.1387 6.016 14.2134 6.464 14.2134 6.968C14.2134 7.164 14.1924 7.29467 14.1504 7.36C14.1084 7.42533 14.029 7.458 13.9124 7.458H9.17335C9.18735 7.906 9.24802 8.29567 9.35535 8.627C9.46735 8.95833 9.62135 9.236 9.81735 9.46C10.0134 9.67933 10.2467 9.845 10.5174 9.957C10.788 10.0643 11.0914 10.118 11.4274 10.118C11.74 10.118 12.0084 10.083 12.2324 10.013C12.461 9.93833 12.657 9.859 12.8204 9.775C12.9837 9.691 13.119 9.614 13.2264 9.544C13.3384 9.46933 13.434 9.432 13.5134 9.432C13.616 9.432 13.6954 9.47167 13.7514 9.551L14.1014 10.006ZM16.9268 5.33C17.1508 4.84467 17.4262 4.46667 17.7528 4.196C18.0795 3.92067 18.4785 3.783 18.9498 3.783C19.0992 3.783 19.2415 3.79933 19.3768 3.832C19.5168 3.86467 19.6405 3.916 19.7478 3.986L19.6568 4.917C19.6288 5.03367 19.5588 5.092 19.4468 5.092C19.3815 5.092 19.2858 5.078 19.1598 5.05C19.0338 5.022 18.8915 5.008 18.7328 5.008C18.5088 5.008 18.3082 5.04067 18.1308 5.106C17.9582 5.17133 17.8018 5.26933 17.6618 5.4C17.5265 5.526 17.4028 5.68467 17.2908 5.876C17.1835 6.06267 17.0855 6.27733 16.9968 6.52V11H15.7438V3.909H16.4578C16.5932 3.909 16.6865 3.93467 16.7378 3.986C16.7892 4.03733 16.8242 4.126 16.8428 4.252L16.9268 5.33ZM24.9324 5.078C24.8764 5.18067 24.7901 5.232 24.6734 5.232C24.6034 5.232 24.5241 5.20633 24.4354 5.155C24.3468 5.10367 24.2371 5.04767 24.1064 4.987C23.9804 4.92167 23.8288 4.86333 23.6514 4.812C23.4741 4.756 23.2641 4.728 23.0214 4.728C22.8114 4.728 22.6224 4.756 22.4544 4.812C22.2864 4.86333 22.1418 4.93567 22.0204 5.029C21.9038 5.12233 21.8128 5.232 21.7474 5.358C21.6868 5.47933 21.6564 5.61233 21.6564 5.757C21.6564 5.939 21.7078 6.09067 21.8104 6.212C21.9178 6.33333 22.0578 6.43833 22.2304 6.527C22.4031 6.61567 22.5991 6.695 22.8184 6.765C23.0378 6.83033 23.2618 6.90267 23.4904 6.982C23.7238 7.05667 23.9501 7.14067 24.1694 7.234C24.3888 7.32733 24.5848 7.444 24.7574 7.584C24.9301 7.724 25.0678 7.89667 25.1704 8.102C25.2778 8.30267 25.3314 8.54533 25.3314 8.83C25.3314 9.15667 25.2731 9.46 25.1564 9.74C25.0398 10.0153 24.8671 10.2557 24.6384 10.461C24.4098 10.6617 24.1298 10.8203 23.7984 10.937C23.4671 11.0537 23.0844 11.112 22.6504 11.112C22.1558 11.112 21.7078 11.0327 21.3064 10.874C20.9051 10.7107 20.5644 10.503 20.2844 10.251L20.5784 9.775C20.6158 9.71433 20.6601 9.66767 20.7114 9.635C20.7628 9.60233 20.8281 9.586 20.9074 9.586C20.9914 9.586 21.0801 9.61867 21.1734 9.684C21.2668 9.74933 21.3788 9.82167 21.5094 9.901C21.6448 9.98033 21.8081 10.0527 21.9994 10.118C22.1908 10.1833 22.4288 10.216 22.7134 10.216C22.9561 10.216 23.1684 10.1857 23.3504 10.125C23.5324 10.0597 23.6841 9.97333 23.8054 9.866C23.9268 9.75867 24.0154 9.635 24.0714 9.495C24.1321 9.355 24.1624 9.20567 24.1624 9.047C24.1624 8.851 24.1088 8.69 24.0014 8.564C23.8988 8.43333 23.7611 8.32367 23.5884 8.235C23.4158 8.14167 23.2174 8.06233 22.9934 7.997C22.7741 7.927 22.5478 7.85467 22.3144 7.78C22.0858 7.70533 21.8594 7.62133 21.6354 7.528C21.4161 7.43 21.2201 7.30867 21.0474 7.164C20.8748 7.01933 20.7348 6.842 20.6274 6.632C20.5248 6.41733 20.4734 6.15833 20.4734 5.855C20.4734 5.58433 20.5294 5.32533 20.6414 5.078C20.7534 4.826 20.9168 4.60667 21.1314 4.42C21.3461 4.22867 21.6098 4.077 21.9224 3.965C22.2351 3.853 22.5921 3.797 22.9934 3.797C23.4601 3.797 23.8778 3.87167 24.2464 4.021C24.6198 4.16567 24.9418 4.36633 25.2124 4.623L24.9324 5.078ZM29.8481 3.797C30.3661 3.797 30.8327 3.88333 31.2481 4.056C31.6634 4.22867 32.0181 4.47367 32.3121 4.791C32.6061 5.10833 32.8301 5.49333 32.9841 5.946C33.1427 6.394 33.2221 6.89567 33.2221 7.451C33.2221 8.011 33.1427 8.515 32.9841 8.963C32.8301 9.411 32.6061 9.79367 32.3121 10.111C32.0181 10.4283 31.6634 10.6733 31.2481 10.846C30.8327 11.014 30.3661 11.098 29.8481 11.098C29.3254 11.098 28.8541 11.014 28.4341 10.846C28.0187 10.6733 27.6641 10.4283 27.3701 10.111C27.0761 9.79367 26.8497 9.411 26.6911 8.963C26.5371 8.515 26.4601 8.011 26.4601 7.451C26.4601 6.89567 26.5371 6.394 26.6911 5.946C26.8497 5.49333 27.0761 5.10833 27.3701 4.791C27.6641 4.47367 28.0187 4.22867 28.4341 4.056C28.8541 3.88333 29.3254 3.797 29.8481 3.797ZM29.8481 10.125C30.5481 10.125 31.0707 9.89167 31.4161 9.425C31.7614 8.95367 31.9341 8.298 31.9341 7.458C31.9341 6.61333 31.7614 5.95533 31.4161 5.484C31.0707 5.01267 30.5481 4.777 29.8481 4.777C29.4934 4.777 29.1831 4.83767 28.9171 4.959C28.6557 5.08033 28.4364 5.25533 28.2591 5.484C28.0864 5.71267 27.9557 5.995 27.8671 6.331C27.7831 6.66233 27.7411 7.038 27.7411 7.458C27.7411 8.298 27.9137 8.95367 28.2591 9.425C28.6091 9.89167 29.1387 10.125 29.8481 10.125ZM35.9784 4.938C36.1324 4.76533 36.2958 4.609 36.4684 4.469C36.6411 4.329 36.8231 4.21 37.0144 4.112C37.2104 4.00933 37.4158 3.93233 37.6304 3.881C37.8498 3.825 38.0854 3.797 38.3374 3.797C38.7248 3.797 39.0654 3.86233 39.3594 3.993C39.6581 4.119 39.9054 4.301 40.1014 4.539C40.3021 4.77233 40.4538 5.05467 40.5564 5.386C40.6591 5.71733 40.7104 6.08367 40.7104 6.485V11H39.4574V6.485C39.4574 5.94833 39.3338 5.533 39.0864 5.239C38.8438 4.94033 38.4728 4.791 37.9734 4.791C37.6048 4.791 37.2594 4.87967 36.9374 5.057C36.6201 5.23433 36.3261 5.47467 36.0554 5.778V11H34.8024V3.909H35.5514C35.7288 3.909 35.8384 3.99533 35.8804 4.168L35.9784 4.938ZM46.4521 7.808C45.8781 7.82667 45.3881 7.87333 44.9821 7.948C44.5807 8.018 44.2517 8.11133 43.9951 8.228C43.7431 8.34467 43.5587 8.48233 43.4421 8.641C43.3301 8.79967 43.2741 8.977 43.2741 9.173C43.2741 9.35967 43.3044 9.52067 43.3651 9.656C43.4257 9.79133 43.5074 9.90333 43.6101 9.992C43.7174 10.076 43.8411 10.139 43.9811 10.181C44.1257 10.2183 44.2797 10.237 44.4431 10.237C44.6624 10.237 44.8631 10.216 45.0451 10.174C45.2271 10.1273 45.3974 10.062 45.5561 9.978C45.7194 9.894 45.8734 9.79367 46.0181 9.677C46.1674 9.56033 46.3121 9.42733 46.4521 9.278V7.808ZM42.4271 4.91C42.8191 4.532 43.2414 4.24967 43.6941 4.063C44.1467 3.87633 44.6484 3.783 45.1991 3.783C45.5957 3.783 45.9481 3.84833 46.2561 3.979C46.5641 4.10967 46.8231 4.29167 47.0331 4.525C47.2431 4.75833 47.4017 5.04067 47.5091 5.372C47.6164 5.70333 47.6701 6.06733 47.6701 6.464V11H47.1171C46.9957 11 46.9024 10.9813 46.8371 10.944C46.7717 10.902 46.7204 10.8227 46.6831 10.706L46.5431 10.034C46.3564 10.2067 46.1744 10.3607 45.9971 10.496C45.8197 10.6267 45.6331 10.7387 45.4371 10.832C45.2411 10.9207 45.0311 10.9883 44.8071 11.035C44.5877 11.0863 44.3427 11.112 44.0721 11.112C43.7967 11.112 43.5377 11.0747 43.2951 11C43.0524 10.9207 42.8401 10.804 42.6581 10.65C42.4807 10.496 42.3384 10.3023 42.2311 10.069C42.1284 9.831 42.0771 9.551 42.0771 9.229C42.0771 8.949 42.1541 8.68067 42.3081 8.424C42.4621 8.16267 42.7117 7.93167 43.0571 7.731C43.4024 7.53033 43.8527 7.367 44.4081 7.241C44.9634 7.11033 45.6447 7.03567 46.4521 7.017V6.464C46.4521 5.91333 46.3331 5.498 46.0951 5.218C45.8571 4.93333 45.5094 4.791 45.0521 4.791C44.7441 4.791 44.4851 4.83067 44.2751 4.91C44.0697 4.98467 43.8901 5.071 43.7361 5.169C43.5867 5.26233 43.4561 5.34867 43.3441 5.428C43.2367 5.50267 43.1294 5.54 43.0221 5.54C42.9381 5.54 42.8657 5.519 42.8051 5.477C42.7444 5.43033 42.6931 5.37433 42.6511 5.309L42.4271 4.91ZM50.8561 0.689V11H49.6101V0.689H50.8561ZM60.2737 9.922C60.661 9.922 60.9947 9.87767 61.2747 9.789C61.5547 9.70033 61.7833 9.57667 61.9607 9.418C62.1427 9.25467 62.2757 9.06333 62.3597 8.844C62.4437 8.62 62.4857 8.375 62.4857 8.109C62.4857 7.591 62.3013 7.18267 61.9327 6.884C61.564 6.58067 61.011 6.429 60.2737 6.429H58.1037V9.922H60.2737ZM58.1037 2.04V5.463H59.8957C60.2783 5.463 60.6097 5.421 60.8897 5.337C61.1743 5.253 61.4077 5.13633 61.5897 4.987C61.7763 4.83767 61.914 4.658 62.0027 4.448C62.0913 4.23333 62.1357 4 62.1357 3.748C62.1357 3.15533 61.9583 2.72367 61.6037 2.453C61.249 2.17767 60.6983 2.04 59.9517 2.04H58.1037ZM59.9517 0.968999C60.5677 0.968999 61.0973 1.02967 61.5407 1.151C61.9887 1.27233 62.355 1.445 62.6397 1.669C62.929 1.893 63.1413 2.16833 63.2767 2.495C63.412 2.817 63.4797 3.181 63.4797 3.587C63.4797 3.83433 63.44 4.07233 63.3607 4.301C63.286 4.525 63.1717 4.735 63.0177 4.931C62.8637 5.127 62.6677 5.30433 62.4297 5.463C62.1963 5.617 61.921 5.743 61.6037 5.841C62.341 5.981 62.894 6.24467 63.2627 6.632C63.636 7.01467 63.8227 7.51867 63.8227 8.144C63.8227 8.56867 63.7433 8.956 63.5847 9.306C63.4307 9.656 63.202 9.957 62.8987 10.209C62.6 10.461 62.2313 10.657 61.7927 10.797C61.354 10.9323 60.8547 11 60.2947 11H56.7527V0.968999H59.9517ZM66.6751 3.909V11H65.4291V3.909H66.6751ZM66.9411 1.683C66.9411 1.80433 66.9154 1.91867 66.8641 2.026C66.8174 2.12867 66.7521 2.222 66.6681 2.306C66.5887 2.38533 66.4931 2.44833 66.3811 2.495C66.2737 2.54167 66.1594 2.565 66.0381 2.565C65.9167 2.565 65.8024 2.54167 65.6951 2.495C65.5924 2.44833 65.5014 2.38533 65.4221 2.306C65.3427 2.222 65.2797 2.12867 65.2331 2.026C65.1864 1.91867 65.1631 1.80433 65.1631 1.683C65.1631 1.56167 65.1864 1.44733 65.2331 1.34C65.2797 1.228 65.3427 1.13233 65.4221 1.053C65.5014 0.969 65.5924 0.903666 65.6951 0.856999C65.8024 0.810333 65.9167 0.786999 66.0381 0.786999C66.1594 0.786999 66.2737 0.810333 66.3811 0.856999C66.4931 0.903666 66.5887 0.969 66.6681 1.053C66.7521 1.13233 66.8174 1.228 66.8641 1.34C66.9154 1.44733 66.9411 1.56167 66.9411 1.683ZM71.7114 3.797C72.2294 3.797 72.696 3.88333 73.1114 4.056C73.5267 4.22867 73.8814 4.47367 74.1754 4.791C74.4694 5.10833 74.6934 5.49333 74.8474 5.946C75.006 6.394 75.0854 6.89567 75.0854 7.451C75.0854 8.011 75.006 8.515 74.8474 8.963C74.6934 9.411 74.4694 9.79367 74.1754 10.111C73.8814 10.4283 73.5267 10.6733 73.1114 10.846C72.696 11.014 72.2294 11.098 71.7114 11.098C71.1887 11.098 70.7174 11.014 70.2974 10.846C69.882 10.6733 69.5274 10.4283 69.2334 10.111C68.9394 9.79367 68.713 9.411 68.5544 8.963C68.4004 8.515 68.3234 8.011 68.3234 7.451C68.3234 6.89567 68.4004 6.394 68.5544 5.946C68.713 5.49333 68.9394 5.10833 69.2334 4.791C69.5274 4.47367 69.882 4.22867 70.2974 4.056C70.7174 3.88333 71.1887 3.797 71.7114 3.797ZM71.7114 10.125C72.4114 10.125 72.934 9.89167 73.2794 9.425C73.6247 8.95367 73.7974 8.298 73.7974 7.458C73.7974 6.61333 73.6247 5.95533 73.2794 5.484C72.934 5.01267 72.4114 4.777 71.7114 4.777C71.3567 4.777 71.0464 4.83767 70.7804 4.959C70.519 5.08033 70.2997 5.25533 70.1224 5.484C69.9497 5.71267 69.819 5.995 69.7304 6.331C69.6464 6.66233 69.6044 7.038 69.6044 7.458C69.6044 8.298 69.777 8.95367 70.1224 9.425C70.4724 9.89167 71.002 10.125 71.7114 10.125Z" fill="black"/>
<path d="M243.469 6.17C243.856 6.17 244.197 6.11867 244.491 6.016C244.789 5.91333 245.039 5.771 245.24 5.589C245.445 5.40233 245.599 5.18067 245.702 4.924C245.804 4.66733 245.856 4.385 245.856 4.077C245.856 3.43767 245.657 2.93833 245.261 2.579C244.869 2.21967 244.271 2.04 243.469 2.04H241.859V6.17H243.469ZM243.469 0.968999C244.103 0.968999 244.654 1.04367 245.121 1.193C245.592 1.33767 245.982 1.54533 246.29 1.816C246.598 2.08667 246.826 2.41333 246.976 2.796C247.13 3.17867 247.207 3.60567 247.207 4.077C247.207 4.54367 247.125 4.97067 246.962 5.358C246.798 5.74533 246.558 6.079 246.241 6.359C245.928 6.639 245.538 6.85833 245.072 7.017C244.61 7.171 244.075 7.248 243.469 7.248H241.859V11H240.508V0.968999H243.469ZM249.668 5.33C249.892 4.84467 250.167 4.46667 250.494 4.196C250.821 3.92067 251.22 3.783 251.691 3.783C251.84 3.783 251.983 3.79933 252.118 3.832C252.258 3.86467 252.382 3.916 252.489 3.986L252.398 4.917C252.37 5.03367 252.3 5.092 252.188 5.092C252.123 5.092 252.027 5.078 251.901 5.05C251.775 5.022 251.633 5.008 251.474 5.008C251.25 5.008 251.049 5.04067 250.872 5.106C250.699 5.17133 250.543 5.26933 250.403 5.4C250.268 5.526 250.144 5.68467 250.032 5.876C249.925 6.06267 249.827 6.27733 249.738 6.52V11H248.485V3.909H249.199C249.334 3.909 249.428 3.93467 249.479 3.986C249.53 4.03733 249.565 4.126 249.584 4.252L249.668 5.33ZM256.287 3.797C256.805 3.797 257.271 3.88333 257.687 4.056C258.102 4.22867 258.457 4.47367 258.751 4.791C259.045 5.10833 259.269 5.49333 259.423 5.946C259.581 6.394 259.661 6.89567 259.661 7.451C259.661 8.011 259.581 8.515 259.423 8.963C259.269 9.411 259.045 9.79367 258.751 10.111C258.457 10.4283 258.102 10.6733 257.687 10.846C257.271 11.014 256.805 11.098 256.287 11.098C255.764 11.098 255.293 11.014 254.873 10.846C254.457 10.6733 254.103 10.4283 253.809 10.111C253.515 9.79367 253.288 9.411 253.13 8.963C252.976 8.515 252.899 8.011 252.899 7.451C252.899 6.89567 252.976 6.394 253.13 5.946C253.288 5.49333 253.515 5.10833 253.809 4.791C254.103 4.47367 254.457 4.22867 254.873 4.056C255.293 3.88333 255.764 3.797 256.287 3.797ZM256.287 10.125C256.987 10.125 257.509 9.89167 257.855 9.425C258.2 8.95367 258.373 8.298 258.373 7.458C258.373 6.61333 258.2 5.95533 257.855 5.484C257.509 5.01267 256.987 4.777 256.287 4.777C255.932 4.777 255.622 4.83767 255.356 4.959C255.094 5.08033 254.875 5.25533 254.698 5.484C254.525 5.71267 254.394 5.995 254.306 6.331C254.222 6.66233 254.18 7.038 254.18 7.458C254.18 8.298 254.352 8.95367 254.698 9.425C255.048 9.89167 255.577 10.125 256.287 10.125ZM262.557 3.909V11.525C262.557 11.8097 262.52 12.0733 262.445 12.316C262.37 12.5633 262.251 12.778 262.088 12.96C261.925 13.142 261.715 13.2843 261.458 13.387C261.206 13.4943 260.903 13.548 260.548 13.548C260.399 13.548 260.261 13.5363 260.135 13.513C260.009 13.4897 259.883 13.4547 259.757 13.408L259.806 12.736C259.815 12.694 259.832 12.6613 259.855 12.638C259.874 12.6193 259.902 12.6077 259.939 12.603C259.976 12.5983 260.025 12.596 260.086 12.596C260.142 12.6007 260.214 12.603 260.303 12.603C260.667 12.603 260.926 12.5167 261.08 12.344C261.234 12.176 261.311 11.903 261.311 11.525V3.909H262.557ZM262.816 1.683C262.816 1.80433 262.79 1.91867 262.739 2.026C262.692 2.12867 262.627 2.222 262.543 2.306C262.464 2.38533 262.37 2.44833 262.263 2.495C262.156 2.54167 262.041 2.565 261.92 2.565C261.799 2.565 261.684 2.54167 261.577 2.495C261.474 2.44833 261.383 2.38533 261.304 2.306C261.225 2.222 261.162 2.12867 261.115 2.026C261.068 1.91867 261.045 1.80433 261.045 1.683C261.045 1.56167 261.068 1.44733 261.115 1.34C261.162 1.228 261.225 1.13233 261.304 1.053C261.383 0.969 261.474 0.903666 261.577 0.856999C261.684 0.810333 261.799 0.786999 261.92 0.786999C262.041 0.786999 262.156 0.810333 262.263 0.856999C262.37 0.903666 262.464 0.969 262.543 1.053C262.627 1.13233 262.692 1.228 262.739 1.34C262.79 1.44733 262.816 1.56167 262.816 1.683ZM269.35 6.681C269.35 6.39167 269.308 6.128 269.224 5.89C269.145 5.64733 269.026 5.43967 268.867 5.267C268.713 5.08967 268.524 4.95433 268.3 4.861C268.076 4.763 267.822 4.714 267.537 4.714C266.94 4.714 266.466 4.889 266.116 5.239C265.771 5.58433 265.556 6.065 265.472 6.681H269.35ZM270.358 10.006C270.204 10.1927 270.02 10.356 269.805 10.496C269.591 10.6313 269.36 10.7433 269.112 10.832C268.87 10.9207 268.618 10.986 268.356 11.028C268.095 11.0747 267.836 11.098 267.579 11.098C267.089 11.098 266.637 11.0163 266.221 10.853C265.811 10.685 265.454 10.4423 265.15 10.125C264.852 9.803 264.618 9.40633 264.45 8.935C264.282 8.46367 264.198 7.92233 264.198 7.311C264.198 6.81633 264.273 6.35433 264.422 5.925C264.576 5.49567 264.796 5.12467 265.08 4.812C265.365 4.49467 265.713 4.24733 266.123 4.07C266.534 3.888 266.996 3.797 267.509 3.797C267.934 3.797 268.326 3.86933 268.685 4.014C269.049 4.154 269.362 4.35933 269.623 4.63C269.889 4.896 270.097 5.22733 270.246 5.624C270.396 6.016 270.47 6.464 270.47 6.968C270.47 7.164 270.449 7.29467 270.407 7.36C270.365 7.42533 270.286 7.458 270.169 7.458H265.43C265.444 7.906 265.505 8.29567 265.612 8.627C265.724 8.95833 265.878 9.236 266.074 9.46C266.27 9.67933 266.504 9.845 266.774 9.957C267.045 10.0643 267.348 10.118 267.684 10.118C267.997 10.118 268.265 10.083 268.489 10.013C268.718 9.93833 268.914 9.859 269.077 9.775C269.241 9.691 269.376 9.614 269.483 9.544C269.595 9.46933 269.691 9.432 269.77 9.432C269.873 9.432 269.952 9.47167 270.008 9.551L270.358 10.006ZM276.936 5.169C276.898 5.22033 276.861 5.26 276.824 5.288C276.786 5.316 276.735 5.33 276.67 5.33C276.6 5.33 276.523 5.302 276.439 5.246C276.355 5.18533 276.25 5.12 276.124 5.05C276.002 4.98 275.851 4.917 275.669 4.861C275.491 4.80033 275.272 4.77 275.011 4.77C274.661 4.77 274.353 4.833 274.087 4.959C273.821 5.08033 273.597 5.25767 273.415 5.491C273.237 5.72433 273.102 6.00667 273.009 6.338C272.92 6.66933 272.876 7.04033 272.876 7.451C272.876 7.88033 272.925 8.263 273.023 8.599C273.121 8.93033 273.258 9.21033 273.436 9.439C273.618 9.663 273.835 9.83567 274.087 9.957C274.343 10.0737 274.63 10.132 274.948 10.132C275.251 10.132 275.501 10.097 275.697 10.027C275.893 9.95233 276.054 9.87067 276.18 9.782C276.31 9.69333 276.418 9.614 276.502 9.544C276.59 9.46933 276.677 9.432 276.761 9.432C276.863 9.432 276.943 9.47167 276.999 9.551L277.349 10.006C277.195 10.1973 277.02 10.3607 276.824 10.496C276.628 10.6313 276.415 10.7457 276.187 10.839C275.963 10.9277 275.727 10.993 275.48 11.035C275.232 11.077 274.98 11.098 274.724 11.098C274.28 11.098 273.867 11.0163 273.485 10.853C273.107 10.6897 272.778 10.454 272.498 10.146C272.218 9.83333 271.998 9.45067 271.84 8.998C271.681 8.54533 271.602 8.02967 271.602 7.451C271.602 6.92367 271.674 6.436 271.819 5.988C271.968 5.54 272.183 5.155 272.463 4.833C272.747 4.50633 273.095 4.252 273.506 4.07C273.921 3.888 274.397 3.797 274.934 3.797C275.433 3.797 275.872 3.87867 276.25 4.042C276.632 4.20067 276.971 4.427 277.265 4.721L276.936 5.169ZM280.863 11.112C280.303 11.112 279.872 10.9557 279.568 10.643C279.27 10.3303 279.12 9.88 279.12 9.292V4.952H278.266C278.192 4.952 278.129 4.931 278.077 4.889C278.026 4.84233 278 4.77233 278 4.679V4.182L279.162 4.035L279.449 1.844C279.463 1.774 279.494 1.718 279.54 1.676C279.592 1.62933 279.657 1.606 279.736 1.606H280.366V4.049H282.417V4.952H280.366V9.208C280.366 9.50667 280.439 9.72833 280.583 9.873C280.728 10.0177 280.915 10.09 281.143 10.09C281.274 10.09 281.386 10.0737 281.479 10.041C281.577 10.0037 281.661 9.964 281.731 9.922C281.801 9.88 281.86 9.84267 281.906 9.81C281.958 9.77267 282.002 9.754 282.039 9.754C282.105 9.754 282.163 9.79367 282.214 9.873L282.578 10.468C282.364 10.6687 282.105 10.8273 281.801 10.944C281.498 11.056 281.185 11.112 280.863 11.112ZM287.834 5.078C287.778 5.18067 287.691 5.232 287.575 5.232C287.505 5.232 287.425 5.20633 287.337 5.155C287.248 5.10367 287.138 5.04767 287.008 4.987C286.882 4.92167 286.73 4.86333 286.553 4.812C286.375 4.756 286.165 4.728 285.923 4.728C285.713 4.728 285.524 4.756 285.356 4.812C285.188 4.86333 285.043 4.93567 284.922 5.029C284.805 5.12233 284.714 5.232 284.649 5.358C284.588 5.47933 284.558 5.61233 284.558 5.757C284.558 5.939 284.609 6.09067 284.712 6.212C284.819 6.33333 284.959 6.43833 285.132 6.527C285.304 6.61567 285.5 6.695 285.72 6.765C285.939 6.83033 286.163 6.90267 286.392 6.982C286.625 7.05667 286.851 7.14067 287.071 7.234C287.29 7.32733 287.486 7.444 287.659 7.584C287.831 7.724 287.969 7.89667 288.072 8.102C288.179 8.30267 288.233 8.54533 288.233 8.83C288.233 9.15667 288.174 9.46 288.058 9.74C287.941 10.0153 287.768 10.2557 287.54 10.461C287.311 10.6617 287.031 10.8203 286.7 10.937C286.368 11.0537 285.986 11.112 285.552 11.112C285.057 11.112 284.609 11.0327 284.208 10.874C283.806 10.7107 283.466 10.503 283.186 10.251L283.48 9.775C283.517 9.71433 283.561 9.66767 283.613 9.635C283.664 9.60233 283.729 9.586 283.809 9.586C283.893 9.586 283.981 9.61867 284.075 9.684C284.168 9.74933 284.28 9.82167 284.411 9.901C284.546 9.98033 284.709 10.0527 284.901 10.118C285.092 10.1833 285.33 10.216 285.615 10.216C285.857 10.216 286.07 10.1857 286.252 10.125C286.434 10.0597 286.585 9.97333 286.707 9.866C286.828 9.75867 286.917 9.635 286.973 9.495C287.033 9.355 287.064 9.20567 287.064 9.047C287.064 8.851 287.01 8.69 286.903 8.564C286.8 8.43333 286.662 8.32367 286.49 8.235C286.317 8.14167 286.119 8.06233 285.895 7.997C285.675 7.927 285.449 7.85467 285.216 7.78C284.987 7.70533 284.761 7.62133 284.537 7.528C284.317 7.43 284.121 7.30867 283.949 7.164C283.776 7.01933 283.636 6.842 283.529 6.632C283.426 6.41733 283.375 6.15833 283.375 5.855C283.375 5.58433 283.431 5.32533 283.543 5.078C283.655 4.826 283.818 4.60667 284.033 4.42C284.247 4.22867 284.511 4.077 284.824 3.965C285.136 3.853 285.493 3.797 285.895 3.797C286.361 3.797 286.779 3.87167 287.148 4.021C287.521 4.16567 287.843 4.36633 288.114 4.623L287.834 5.078Z" fill="black"/>
<path d="M458.657 8.928C458.732 8.928 458.797 8.95833 458.853 9.019L459.392 9.6C458.981 10.076 458.482 10.447 457.894 10.713C457.311 10.979 456.604 11.112 455.773 11.112C455.054 11.112 454.401 10.9883 453.813 10.741C453.225 10.489 452.723 10.139 452.308 9.691C451.893 9.23833 451.571 8.697 451.342 8.067C451.113 7.437 450.999 6.744 450.999 5.988C450.999 5.232 451.118 4.539 451.356 3.909C451.594 3.279 451.928 2.73767 452.357 2.285C452.791 1.83233 453.309 1.48233 453.911 1.235C454.513 0.982999 455.178 0.856999 455.906 0.856999C456.62 0.856999 457.25 0.971333 457.796 1.2C458.342 1.42867 458.823 1.739 459.238 2.131L458.79 2.754C458.762 2.80067 458.725 2.84033 458.678 2.873C458.636 2.901 458.578 2.915 458.503 2.915C458.419 2.915 458.316 2.87067 458.195 2.782C458.074 2.68867 457.915 2.586 457.719 2.474C457.523 2.362 457.278 2.26167 456.984 2.173C456.69 2.07967 456.328 2.033 455.899 2.033C455.381 2.033 454.907 2.124 454.478 2.306C454.049 2.48333 453.678 2.74233 453.365 3.083C453.057 3.42367 452.817 3.839 452.644 4.329C452.471 4.819 452.385 5.372 452.385 5.988C452.385 6.61333 452.474 7.171 452.651 7.661C452.833 8.151 453.078 8.56633 453.386 8.907C453.699 9.243 454.065 9.49967 454.485 9.677C454.91 9.85433 455.367 9.943 455.857 9.943C456.156 9.943 456.424 9.92667 456.662 9.894C456.905 9.85667 457.126 9.80067 457.327 9.726C457.532 9.65133 457.721 9.558 457.894 9.446C458.071 9.32933 458.246 9.19167 458.419 9.033C458.498 8.963 458.578 8.928 458.657 8.928ZM465.282 6.681C465.282 6.39167 465.24 6.128 465.156 5.89C465.076 5.64733 464.957 5.43967 464.799 5.267C464.645 5.08967 464.456 4.95433 464.232 4.861C464.008 4.763 463.753 4.714 463.469 4.714C462.871 4.714 462.398 4.889 462.048 5.239C461.702 5.58433 461.488 6.065 461.404 6.681H465.282ZM466.29 10.006C466.136 10.1927 465.951 10.356 465.737 10.496C465.522 10.6313 465.291 10.7433 465.044 10.832C464.801 10.9207 464.549 10.986 464.288 11.028C464.026 11.0747 463.767 11.098 463.511 11.098C463.021 11.098 462.568 11.0163 462.153 10.853C461.742 10.685 461.385 10.4423 461.082 10.125C460.783 9.803 460.55 9.40633 460.382 8.935C460.214 8.46367 460.13 7.92233 460.13 7.311C460.13 6.81633 460.204 6.35433 460.354 5.925C460.508 5.49567 460.727 5.12467 461.012 4.812C461.296 4.49467 461.644 4.24733 462.055 4.07C462.465 3.888 462.927 3.797 463.441 3.797C463.865 3.797 464.257 3.86933 464.617 4.014C464.981 4.154 465.293 4.35933 465.555 4.63C465.821 4.896 466.028 5.22733 466.178 5.624C466.327 6.016 466.402 6.464 466.402 6.968C466.402 7.164 466.381 7.29467 466.339 7.36C466.297 7.42533 466.217 7.458 466.101 7.458H461.362C461.376 7.906 461.436 8.29567 461.544 8.627C461.656 8.95833 461.81 9.236 462.006 9.46C462.202 9.67933 462.435 9.845 462.706 9.957C462.976 10.0643 463.28 10.118 463.616 10.118C463.928 10.118 464.197 10.083 464.421 10.013C464.649 9.93833 464.845 9.859 465.009 9.775C465.172 9.691 465.307 9.614 465.415 9.544C465.527 9.46933 465.622 9.432 465.702 9.432C465.804 9.432 465.884 9.47167 465.94 9.551L466.29 10.006ZM469.115 5.33C469.339 4.84467 469.615 4.46667 469.941 4.196C470.268 3.92067 470.667 3.783 471.138 3.783C471.288 3.783 471.43 3.79933 471.565 3.832C471.705 3.86467 471.829 3.916 471.936 3.986L471.845 4.917C471.817 5.03367 471.747 5.092 471.635 5.092C471.57 5.092 471.474 5.078 471.348 5.05C471.222 5.022 471.08 5.008 470.921 5.008C470.697 5.008 470.497 5.04067 470.319 5.106C470.147 5.17133 469.99 5.26933 469.85 5.4C469.715 5.526 469.591 5.68467 469.479 5.876C469.372 6.06267 469.274 6.27733 469.185 6.52V11H467.932V3.909H468.646C468.782 3.909 468.875 3.93467 468.926 3.986C468.978 4.03733 469.013 4.126 469.031 4.252L469.115 5.33ZM479.612 11H478.366V4.952H474.712V9.208C474.712 9.50667 474.784 9.72833 474.929 9.873C475.074 10.0177 475.26 10.09 475.489 10.09C475.62 10.09 475.732 10.0737 475.825 10.041C475.923 10.0037 476.007 9.964 476.077 9.922C476.147 9.88 476.205 9.84267 476.252 9.81C476.303 9.77267 476.348 9.754 476.385 9.754C476.45 9.754 476.509 9.79367 476.56 9.873L476.924 10.468C476.709 10.6687 476.45 10.8273 476.147 10.944C475.844 11.056 475.531 11.112 475.209 11.112C474.649 11.112 474.217 10.9557 473.914 10.643C473.615 10.3303 473.466 9.88 473.466 9.292V4.952H472.612C472.537 4.952 472.474 4.931 472.423 4.889C472.372 4.84233 472.346 4.77233 472.346 4.679V4.182L473.508 4.028L473.795 1.844C473.809 1.774 473.839 1.718 473.886 1.676C473.937 1.62933 474.003 1.606 474.082 1.606H474.712V4.049H479.612V11ZM479.92 1.634C479.92 1.75533 479.894 1.86967 479.843 1.977C479.796 2.07967 479.731 2.17067 479.647 2.25C479.568 2.32933 479.474 2.39233 479.367 2.439C479.26 2.48567 479.145 2.509 479.024 2.509C478.903 2.509 478.788 2.48567 478.681 2.439C478.578 2.39233 478.487 2.32933 478.408 2.25C478.329 2.17067 478.266 2.07967 478.219 1.977C478.172 1.86967 478.149 1.75533 478.149 1.634C478.149 1.51267 478.172 1.39833 478.219 1.291C478.266 1.179 478.329 1.08333 478.408 1.004C478.487 0.919999 478.578 0.854666 478.681 0.807999C478.788 0.761333 478.903 0.737999 479.024 0.737999C479.145 0.737999 479.26 0.761333 479.367 0.807999C479.474 0.854666 479.568 0.919999 479.647 1.004C479.731 1.08333 479.796 1.179 479.843 1.291C479.894 1.39833 479.92 1.51267 479.92 1.634ZM482.135 11V4.973L481.351 4.882C481.248 4.85867 481.167 4.82367 481.106 4.777C481.045 4.72567 481.015 4.65333 481.015 4.56V4.049H482.135V3.657C482.135 3.223 482.203 2.82633 482.338 2.467C482.473 2.103 482.676 1.79033 482.947 1.529C483.218 1.26767 483.554 1.06467 483.955 0.92C484.361 0.775333 484.83 0.702999 485.362 0.702999C485.539 0.702999 485.721 0.714666 485.908 0.737999C486.095 0.761333 486.256 0.796333 486.391 0.842999L486.342 1.494C486.337 1.54067 486.319 1.57333 486.286 1.592C486.258 1.61067 486.218 1.62233 486.167 1.627C486.116 1.63167 486.05 1.634 485.971 1.634C485.896 1.62933 485.81 1.627 485.712 1.627C484.881 1.627 484.279 1.79967 483.906 2.145C483.533 2.48567 483.346 3.00133 483.346 3.692V4.049H487.63V11H486.377V4.952H483.381V11H482.135ZM494.606 5.169C494.568 5.22033 494.531 5.26 494.494 5.288C494.456 5.316 494.405 5.33 494.34 5.33C494.27 5.33 494.193 5.302 494.109 5.246C494.025 5.18533 493.92 5.12 493.794 5.05C493.672 4.98 493.521 4.917 493.339 4.861C493.161 4.80033 492.942 4.77 492.681 4.77C492.331 4.77 492.023 4.833 491.757 4.959C491.491 5.08033 491.267 5.25767 491.085 5.491C490.907 5.72433 490.772 6.00667 490.679 6.338C490.59 6.66933 490.546 7.04033 490.546 7.451C490.546 7.88033 490.595 8.263 490.693 8.599C490.791 8.93033 490.928 9.21033 491.106 9.439C491.288 9.663 491.505 9.83567 491.757 9.957C492.013 10.0737 492.3 10.132 492.618 10.132C492.921 10.132 493.171 10.097 493.367 10.027C493.563 9.95233 493.724 9.87067 493.85 9.782C493.98 9.69333 494.088 9.614 494.172 9.544C494.26 9.46933 494.347 9.432 494.431 9.432C494.533 9.432 494.613 9.47167 494.669 9.551L495.019 10.006C494.865 10.1973 494.69 10.3607 494.494 10.496C494.298 10.6313 494.085 10.7457 493.857 10.839C493.633 10.9277 493.397 10.993 493.15 11.035C492.902 11.077 492.65 11.098 492.394 11.098C491.95 11.098 491.537 11.0163 491.155 10.853C490.777 10.6897 490.448 10.454 490.168 10.146C489.888 9.83333 489.668 9.45067 489.51 8.998C489.351 8.54533 489.272 8.02967 489.272 7.451C489.272 6.92367 489.344 6.436 489.489 5.988C489.638 5.54 489.853 5.155 490.133 4.833C490.417 4.50633 490.765 4.252 491.176 4.07C491.591 3.888 492.067 3.797 492.604 3.797C493.103 3.797 493.542 3.87867 493.92 4.042C494.302 4.20067 494.641 4.427 494.935 4.721L494.606 5.169ZM500.199 7.808C499.625 7.82667 499.135 7.87333 498.729 7.948C498.328 8.018 497.999 8.11133 497.742 8.228C497.49 8.34467 497.306 8.48233 497.189 8.641C497.077 8.79967 497.021 8.977 497.021 9.173C497.021 9.35967 497.051 9.52067 497.112 9.656C497.173 9.79133 497.254 9.90333 497.357 9.992C497.464 10.076 497.588 10.139 497.728 10.181C497.873 10.2183 498.027 10.237 498.19 10.237C498.409 10.237 498.61 10.216 498.792 10.174C498.974 10.1273 499.144 10.062 499.303 9.978C499.466 9.894 499.62 9.79367 499.765 9.677C499.914 9.56033 500.059 9.42733 500.199 9.278V7.808ZM496.174 4.91C496.566 4.532 496.988 4.24967 497.441 4.063C497.894 3.87633 498.395 3.783 498.946 3.783C499.343 3.783 499.695 3.84833 500.003 3.979C500.311 4.10967 500.57 4.29167 500.78 4.525C500.99 4.75833 501.149 5.04067 501.256 5.372C501.363 5.70333 501.417 6.06733 501.417 6.464V11H500.864C500.743 11 500.649 10.9813 500.584 10.944C500.519 10.902 500.467 10.8227 500.43 10.706L500.29 10.034C500.103 10.2067 499.921 10.3607 499.744 10.496C499.567 10.6267 499.38 10.7387 499.184 10.832C498.988 10.9207 498.778 10.9883 498.554 11.035C498.335 11.0863 498.09 11.112 497.819 11.112C497.544 11.112 497.285 11.0747 497.042 11C496.799 10.9207 496.587 10.804 496.405 10.65C496.228 10.496 496.085 10.3023 495.978 10.069C495.875 9.831 495.824 9.551 495.824 9.229C495.824 8.949 495.901 8.68067 496.055 8.424C496.209 8.16267 496.459 7.93167 496.804 7.731C497.149 7.53033 497.6 7.367 498.155 7.241C498.71 7.11033 499.392 7.03567 500.199 7.017V6.464C500.199 5.91333 500.08 5.498 499.842 5.218C499.604 4.93333 499.256 4.791 498.799 4.791C498.491 4.791 498.232 4.83067 498.022 4.91C497.817 4.98467 497.637 5.071 497.483 5.169C497.334 5.26233 497.203 5.34867 497.091 5.428C496.984 5.50267 496.876 5.54 496.769 5.54C496.685 5.54 496.613 5.519 496.552 5.477C496.491 5.43033 496.44 5.37433 496.398 5.309L496.174 4.91ZM509.799 11H508.553V4.952H504.899V9.208C504.899 9.50667 504.972 9.72833 505.116 9.873C505.261 10.0177 505.448 10.09 505.676 10.09C505.807 10.09 505.919 10.0737 506.012 10.041C506.11 10.0037 506.194 9.964 506.264 9.922C506.334 9.88 506.393 9.84267 506.439 9.81C506.491 9.77267 506.535 9.754 506.572 9.754C506.638 9.754 506.696 9.79367 506.747 9.873L507.111 10.468C506.897 10.6687 506.638 10.8273 506.334 10.944C506.031 11.056 505.718 11.112 505.396 11.112C504.836 11.112 504.405 10.9557 504.101 10.643C503.803 10.3303 503.653 9.88 503.653 9.292V4.952H502.799C502.725 4.952 502.662 4.931 502.61 4.889C502.559 4.84233 502.533 4.77233 502.533 4.679V4.182L503.695 4.028L503.982 1.844C503.996 1.774 504.027 1.718 504.073 1.676C504.125 1.62933 504.19 1.606 504.269 1.606H504.899V4.049H509.799V11ZM510.107 1.634C510.107 1.75533 510.082 1.86967 510.03 1.977C509.984 2.07967 509.918 2.17067 509.834 2.25C509.755 2.32933 509.662 2.39233 509.554 2.439C509.447 2.48567 509.333 2.509 509.211 2.509C509.09 2.509 508.976 2.48567 508.868 2.439C508.766 2.39233 508.675 2.32933 508.595 2.25C508.516 2.17067 508.453 2.07967 508.406 1.977C508.36 1.86967 508.336 1.75533 508.336 1.634C508.336 1.51267 508.36 1.39833 508.406 1.291C508.453 1.179 508.516 1.08333 508.595 1.004C508.675 0.919999 508.766 0.854666 508.868 0.807999C508.976 0.761333 509.09 0.737999 509.211 0.737999C509.333 0.737999 509.447 0.761333 509.554 0.807999C509.662 0.854666 509.755 0.919999 509.834 1.004C509.918 1.08333 509.984 1.179 510.03 1.291C510.082 1.39833 510.107 1.51267 510.107 1.634ZM514.835 3.797C515.353 3.797 515.82 3.88333 516.235 4.056C516.651 4.22867 517.005 4.47367 517.299 4.791C517.593 5.10833 517.817 5.49333 517.971 5.946C518.13 6.394 518.209 6.89567 518.209 7.451C518.209 8.011 518.13 8.515 517.971 8.963C517.817 9.411 517.593 9.79367 517.299 10.111C517.005 10.4283 516.651 10.6733 516.235 10.846C515.82 11.014 515.353 11.098 514.835 11.098C514.313 11.098 513.841 11.014 513.421 10.846C513.006 10.6733 512.651 10.4283 512.357 10.111C512.063 9.79367 511.837 9.411 511.678 8.963C511.524 8.515 511.447 8.011 511.447 7.451C511.447 6.89567 511.524 6.394 511.678 5.946C511.837 5.49333 512.063 5.10833 512.357 4.791C512.651 4.47367 513.006 4.22867 513.421 4.056C513.841 3.88333 514.313 3.797 514.835 3.797ZM514.835 10.125C515.535 10.125 516.058 9.89167 516.403 9.425C516.749 8.95367 516.921 8.298 516.921 7.458C516.921 6.61333 516.749 5.95533 516.403 5.484C516.058 5.01267 515.535 4.777 514.835 4.777C514.481 4.777 514.17 4.83767 513.904 4.959C513.643 5.08033 513.424 5.25533 513.246 5.484C513.074 5.71267 512.943 5.995 512.854 6.331C512.77 6.66233 512.728 7.038 512.728 7.458C512.728 8.298 512.901 8.95367 513.246 9.425C513.596 9.89167 514.126 10.125 514.835 10.125ZM520.966 4.938C521.12 4.76533 521.283 4.609 521.456 4.469C521.628 4.329 521.81 4.21 522.002 4.112C522.198 4.00933 522.403 3.93233 522.618 3.881C522.837 3.825 523.073 3.797 523.325 3.797C523.712 3.797 524.053 3.86233 524.347 3.993C524.645 4.119 524.893 4.301 525.089 4.539C525.289 4.77233 525.441 5.05467 525.544 5.386C525.646 5.71733 525.698 6.08367 525.698 6.485V11H524.445V6.485C524.445 5.94833 524.321 5.533 524.074 5.239C523.831 4.94033 523.46 4.791 522.961 4.791C522.592 4.791 522.247 4.87967 521.925 5.057C521.607 5.23433 521.313 5.47467 521.043 5.778V11H519.79V3.909H520.539C520.716 3.909 520.826 3.99533 520.868 4.168L520.966 4.938ZM531.726 5.078C531.67 5.18067 531.584 5.232 531.467 5.232C531.397 5.232 531.318 5.20633 531.229 5.155C531.141 5.10367 531.031 5.04767 530.9 4.987C530.774 4.92167 530.623 4.86333 530.445 4.812C530.268 4.756 530.058 4.728 529.815 4.728C529.605 4.728 529.416 4.756 529.248 4.812C529.08 4.86333 528.936 4.93567 528.814 5.029C528.698 5.12233 528.607 5.232 528.541 5.358C528.481 5.47933 528.45 5.61233 528.45 5.757C528.45 5.939 528.502 6.09067 528.604 6.212C528.712 6.33333 528.852 6.43833 529.024 6.527C529.197 6.61567 529.393 6.695 529.612 6.765C529.832 6.83033 530.056 6.90267 530.284 6.982C530.518 7.05667 530.744 7.14067 530.963 7.234C531.183 7.32733 531.379 7.444 531.551 7.584C531.724 7.724 531.862 7.89667 531.964 8.102C532.072 8.30267 532.125 8.54533 532.125 8.83C532.125 9.15667 532.067 9.46 531.95 9.74C531.834 10.0153 531.661 10.2557 531.432 10.461C531.204 10.6617 530.924 10.8203 530.592 10.937C530.261 11.0537 529.878 11.112 529.444 11.112C528.95 11.112 528.502 11.0327 528.1 10.874C527.699 10.7107 527.358 10.503 527.078 10.251L527.372 9.775C527.41 9.71433 527.454 9.66767 527.505 9.635C527.557 9.60233 527.622 9.586 527.701 9.586C527.785 9.586 527.874 9.61867 527.967 9.684C528.061 9.74933 528.173 9.82167 528.303 9.901C528.439 9.98033 528.602 10.0527 528.793 10.118C528.985 10.1833 529.223 10.216 529.507 10.216C529.75 10.216 529.962 10.1857 530.144 10.125C530.326 10.0597 530.478 9.97333 530.599 9.866C530.721 9.75867 530.809 9.635 530.865 9.495C530.926 9.355 530.956 9.20567 530.956 9.047C530.956 8.851 530.903 8.69 530.795 8.564C530.693 8.43333 530.555 8.32367 530.382 8.235C530.21 8.14167 530.011 8.06233 529.787 7.997C529.568 7.927 529.342 7.85467 529.108 7.78C528.88 7.70533 528.653 7.62133 528.429 7.528C528.21 7.43 528.014 7.30867 527.841 7.164C527.669 7.01933 527.529 6.842 527.421 6.632C527.319 6.41733 527.267 6.15833 527.267 5.855C527.267 5.58433 527.323 5.32533 527.435 5.078C527.547 4.826 527.711 4.60667 527.925 4.42C528.14 4.22867 528.404 4.077 528.716 3.965C529.029 3.853 529.386 3.797 529.787 3.797C530.254 3.797 530.672 3.87167 531.04 4.021C531.414 4.16567 531.736 4.36633 532.006 4.623L531.726 5.078Z" fill="black"/>
<path d="M690.626 8.928C690.7 8.928 690.766 8.95833 690.822 9.019L691.361 9.6C690.95 10.076 690.451 10.447 689.863 10.713C689.279 10.979 688.572 11.112 687.742 11.112C687.023 11.112 686.37 10.9883 685.782 10.741C685.194 10.489 684.692 10.139 684.277 9.691C683.861 9.23833 683.539 8.697 683.311 8.067C683.082 7.437 682.968 6.744 682.968 5.988C682.968 5.232 683.087 4.539 683.325 3.909C683.563 3.279 683.896 2.73767 684.326 2.285C684.76 1.83233 685.278 1.48233 685.88 1.235C686.482 0.982999 687.147 0.856999 687.875 0.856999C688.589 0.856999 689.219 0.971333 689.765 1.2C690.311 1.42867 690.791 1.739 691.207 2.131L690.759 2.754C690.731 2.80067 690.693 2.84033 690.647 2.873C690.605 2.901 690.546 2.915 690.472 2.915C690.388 2.915 690.285 2.87067 690.164 2.782C690.042 2.68867 689.884 2.586 689.688 2.474C689.492 2.362 689.247 2.26167 688.953 2.173C688.659 2.07967 688.297 2.033 687.868 2.033C687.35 2.033 686.876 2.124 686.447 2.306C686.017 2.48333 685.646 2.74233 685.334 3.083C685.026 3.42367 684.785 3.839 684.613 4.329C684.44 4.819 684.354 5.372 684.354 5.988C684.354 6.61333 684.442 7.171 684.62 7.661C684.802 8.151 685.047 8.56633 685.355 8.907C685.667 9.243 686.034 9.49967 686.454 9.677C686.878 9.85433 687.336 9.943 687.826 9.943C688.124 9.943 688.393 9.92667 688.631 9.894C688.873 9.85667 689.095 9.80067 689.296 9.726C689.501 9.65133 689.69 9.558 689.863 9.446C690.04 9.32933 690.215 9.19167 690.388 9.033C690.467 8.963 690.546 8.928 690.626 8.928ZM695.494 3.797C696.012 3.797 696.478 3.88333 696.894 4.056C697.309 4.22867 697.664 4.47367 697.958 4.791C698.252 5.10833 698.476 5.49333 698.63 5.946C698.788 6.394 698.868 6.89567 698.868 7.451C698.868 8.011 698.788 8.515 698.63 8.963C698.476 9.411 698.252 9.79367 697.958 10.111C697.664 10.4283 697.309 10.6733 696.894 10.846C696.478 11.014 696.012 11.098 695.494 11.098C694.971 11.098 694.5 11.014 694.08 10.846C693.664 10.6733 693.31 10.4283 693.016 10.111C692.722 9.79367 692.495 9.411 692.337 8.963C692.183 8.515 692.106 8.011 692.106 7.451C692.106 6.89567 692.183 6.394 692.337 5.946C692.495 5.49333 692.722 5.10833 693.016 4.791C693.31 4.47367 693.664 4.22867 694.08 4.056C694.5 3.88333 694.971 3.797 695.494 3.797ZM695.494 10.125C696.194 10.125 696.716 9.89167 697.062 9.425C697.407 8.95367 697.58 8.298 697.58 7.458C697.58 6.61333 697.407 5.95533 697.062 5.484C696.716 5.01267 696.194 4.777 695.494 4.777C695.139 4.777 694.829 4.83767 694.563 4.959C694.301 5.08033 694.082 5.25533 693.905 5.484C693.732 5.71267 693.601 5.995 693.513 6.331C693.429 6.66233 693.387 7.038 693.387 7.458C693.387 8.298 693.559 8.95367 693.905 9.425C694.255 9.89167 694.784 10.125 695.494 10.125ZM700.448 11V3.909H701.197C701.374 3.909 701.484 3.99533 701.526 4.168L701.617 4.896C701.878 4.574 702.172 4.31033 702.499 4.105C702.826 3.89967 703.204 3.797 703.633 3.797C704.109 3.797 704.494 3.93 704.788 4.196C705.087 4.462 705.301 4.82133 705.432 5.274C705.535 5.01733 705.665 4.79567 705.824 4.609C705.987 4.42233 706.169 4.26833 706.37 4.147C706.571 4.02567 706.783 3.937 707.007 3.881C707.236 3.825 707.467 3.797 707.7 3.797C708.073 3.797 708.405 3.85767 708.694 3.979C708.988 4.09567 709.235 4.26833 709.436 4.497C709.641 4.72567 709.798 5.008 709.905 5.344C710.012 5.67533 710.066 6.05567 710.066 6.485V11H708.813V6.485C708.813 5.92967 708.692 5.50967 708.449 5.225C708.206 4.93567 707.856 4.791 707.399 4.791C707.194 4.791 706.998 4.82833 706.811 4.903C706.629 4.973 706.468 5.078 706.328 5.218C706.188 5.358 706.076 5.53533 705.992 5.75C705.913 5.96 705.873 6.205 705.873 6.485V11H704.62V6.485C704.62 5.91567 704.506 5.491 704.277 5.211C704.048 4.931 703.715 4.791 703.276 4.791C702.968 4.791 702.683 4.875 702.422 5.043C702.161 5.20633 701.92 5.43033 701.701 5.715V11H700.448ZM711.96 11V3.909H712.709C712.886 3.909 712.996 3.99533 713.038 4.168L713.129 4.896C713.39 4.574 713.684 4.31033 714.011 4.105C714.337 3.89967 714.715 3.797 715.145 3.797C715.621 3.797 716.006 3.93 716.3 4.196C716.598 4.462 716.813 4.82133 716.944 5.274C717.046 5.01733 717.177 4.79567 717.336 4.609C717.499 4.42233 717.681 4.26833 717.882 4.147C718.082 4.02567 718.295 3.937 718.519 3.881C718.747 3.825 718.978 3.797 719.212 3.797C719.585 3.797 719.916 3.85767 720.206 3.979C720.5 4.09567 720.747 4.26833 720.948 4.497C721.153 4.72567 721.309 5.008 721.417 5.344C721.524 5.67533 721.578 6.05567 721.578 6.485V11H720.325V6.485C720.325 5.92967 720.203 5.50967 719.961 5.225C719.718 4.93567 719.368 4.791 718.911 4.791C718.705 4.791 718.509 4.82833 718.323 4.903C718.141 4.973 717.98 5.078 717.84 5.218C717.7 5.358 717.588 5.53533 717.504 5.75C717.424 5.96 717.385 6.205 717.385 6.485V11H716.132V6.485C716.132 5.91567 716.017 5.491 715.789 5.211C715.56 4.931 715.226 4.791 714.788 4.791C714.48 4.791 714.195 4.875 713.934 5.043C713.672 5.20633 713.432 5.43033 713.213 5.715V11H711.96ZM729.302 3.909V11H728.56C728.383 11 728.271 10.9137 728.224 10.741L728.126 9.978C727.818 10.3187 727.473 10.594 727.09 10.804C726.708 11.0093 726.269 11.112 725.774 11.112C725.387 11.112 725.044 11.049 724.745 10.923C724.451 10.7923 724.204 10.6103 724.003 10.377C723.803 10.1437 723.651 9.86133 723.548 9.53C723.45 9.19867 723.401 8.83233 723.401 8.431V3.909H724.647V8.431C724.647 8.96767 724.769 9.383 725.011 9.677C725.259 9.971 725.634 10.118 726.138 10.118C726.507 10.118 726.85 10.0317 727.167 9.859C727.489 9.68167 727.786 9.439 728.056 9.131V3.909H729.302ZM732.454 4.938C732.608 4.76533 732.771 4.609 732.944 4.469C733.117 4.329 733.299 4.21 733.49 4.112C733.686 4.00933 733.891 3.93233 734.106 3.881C734.325 3.825 734.561 3.797 734.813 3.797C735.2 3.797 735.541 3.86233 735.835 3.993C736.134 4.119 736.381 4.301 736.577 4.539C736.778 4.77233 736.929 5.05467 737.032 5.386C737.135 5.71733 737.186 6.08367 737.186 6.485V11H735.933V6.485C735.933 5.94833 735.809 5.533 735.562 5.239C735.319 4.94033 734.948 4.791 734.449 4.791C734.08 4.791 733.735 4.87967 733.413 5.057C733.096 5.23433 732.802 5.47467 732.531 5.778V11H731.278V3.909H732.027C732.204 3.909 732.314 3.99533 732.356 4.168L732.454 4.938ZM740.401 3.909V11H739.155V3.909H740.401ZM740.667 1.683C740.667 1.80433 740.641 1.91867 740.59 2.026C740.543 2.12867 740.478 2.222 740.394 2.306C740.314 2.38533 740.219 2.44833 740.107 2.495C739.999 2.54167 739.885 2.565 739.764 2.565C739.642 2.565 739.528 2.54167 739.421 2.495C739.318 2.44833 739.227 2.38533 739.148 2.306C739.068 2.222 739.005 2.12867 738.959 2.026C738.912 1.91867 738.889 1.80433 738.889 1.683C738.889 1.56167 738.912 1.44733 738.959 1.34C739.005 1.228 739.068 1.13233 739.148 1.053C739.227 0.969 739.318 0.903666 739.421 0.856999C739.528 0.810333 739.642 0.786999 739.764 0.786999C739.885 0.786999 739.999 0.810333 740.107 0.856999C740.219 0.903666 740.314 0.969 740.394 1.053C740.478 1.13233 740.543 1.228 740.59 1.34C740.641 1.44733 740.667 1.56167 740.667 1.683ZM744.625 11.112C744.065 11.112 743.633 10.9557 743.33 10.643C743.031 10.3303 742.882 9.88 742.882 9.292V4.952H742.028C741.953 4.952 741.89 4.931 741.839 4.889C741.788 4.84233 741.762 4.77233 741.762 4.679V4.182L742.924 4.035L743.211 1.844C743.225 1.774 743.255 1.718 743.302 1.676C743.353 1.62933 743.419 1.606 743.498 1.606H744.128V4.049H746.179V4.952H744.128V9.208C744.128 9.50667 744.2 9.72833 744.345 9.873C744.49 10.0177 744.676 10.09 744.905 10.09C745.036 10.09 745.148 10.0737 745.241 10.041C745.339 10.0037 745.423 9.964 745.493 9.922C745.563 9.88 745.621 9.84267 745.668 9.81C745.719 9.77267 745.764 9.754 745.801 9.754C745.866 9.754 745.925 9.79367 745.976 9.873L746.34 10.468C746.125 10.6687 745.866 10.8273 745.563 10.944C745.26 11.056 744.947 11.112 744.625 11.112ZM753.584 3.909L749.629 13.093C749.587 13.1863 749.533 13.261 749.468 13.317C749.407 13.373 749.311 13.401 749.181 13.401H748.257L749.552 10.587L746.626 3.909H747.704C747.811 3.909 747.895 3.937 747.956 3.993C748.021 4.04433 748.065 4.10267 748.089 4.168L749.986 8.634C750.06 8.83 750.123 9.03533 750.175 9.25C750.24 9.03067 750.31 8.823 750.385 8.627L752.226 4.168C752.254 4.09333 752.3 4.03267 752.366 3.986C752.436 3.93467 752.513 3.909 752.597 3.909H753.584Z" fill="black"/>
<circle cx="37" cy="38" r="15" fill="#871E99"/>
<path d="M34.21 45.54L28 39.33L30.83 36.5L34.21 39.89L44.09 30L46.92 32.83L34.21 45.54Z" fill="white"/>
<path d="M261.21 45.54L255 39.33L257.83 36.5L261.21 39.89L271.09 30L273.92 32.83L261.21 45.54Z" fill="white"/>
</svg>